<svg width="27" height="28" viewBox="0 0 27 28" fill="none" xmlns="http://www.w3.org/2000/svg">
<path d="M24.75 13.3123C24.75 19.2559 19.7125 24.0749 13.5 24.0749C12.7695 24.0759 12.0411 24.0083 11.3236 23.8736C10.8071 23.7765 10.5489 23.728 10.3686 23.7556C10.1883 23.7832 9.93283 23.919 9.42186 24.1908C7.97641 24.9595 6.29094 25.2309 4.67 24.9294C5.28608 24.1716 5.70684 23.2624 5.8925 22.2877C6.005 21.6915 5.72625 21.1123 5.30875 20.6883C3.4125 18.7627 2.25 16.168 2.25 13.3123C2.25 7.36882 7.2875 2.5498 13.5 2.5498C19.7125 2.5498 24.75 7.36882 24.75 13.3123Z" stroke="#C11918" stroke-width="2" stroke-linejoin="round"/>
<path d="M13.4949 13.7998H13.5051M17.9899 13.7998H18M9 13.7998H9.01009" stroke="#C11918" stroke-width="2" stroke-linecap="round" stroke-linejoin="round"/>
</svg>
