<svg width="27" height="28" viewBox="0 0 27 28" fill="none" xmlns="http://www.w3.org/2000/svg">
<path d="M15.3199 24.3377C14.8321 24.7944 14.1799 25.0498 13.5012 25.0498C12.8225 25.0498 12.1705 24.7944 11.6826 24.3377C7.21465 20.1291 1.22711 15.4276 4.14705 8.60192C5.72583 4.91136 9.51563 2.5498 13.5012 2.5498C17.4869 2.5498 21.2767 4.91136 22.8555 8.60192C25.7717 15.419 19.7989 20.1436 15.3199 24.3377Z" stroke="#C11918" stroke-width="1.6875"/>
<path d="M17.4375 12.6748C17.4375 14.8494 15.6746 16.6123 13.5 16.6123C11.3254 16.6123 9.5625 14.8494 9.5625 12.6748C9.5625 10.5002 11.3254 8.7373 13.5 8.7373C15.6746 8.7373 17.4375 10.5002 17.4375 12.6748Z" stroke="#C11918" stroke-width="1.6875"/>
</svg>
