<svg width="200" height="67" viewBox="0 0 200 67" fill="none" xmlns="http://www.w3.org/2000/svg">
<path d="M108.833 1.86912C108.805 2.07785 108.789 2.28821 108.787 2.49892C108.787 3.89252 108.74 5.07172 108.693 6.03652C108.661 7.10161 108.361 8.14112 107.821 9.05835C107.281 9.97558 106.52 10.7407 105.607 11.2826C104.388 12.085 103.032 12.653 101.607 12.9576C101.38 13.0045 101.313 12.9241 101.387 12.7097L101.587 12.1603C101.618 12.062 101.677 11.9753 101.758 11.9119C101.839 11.8485 101.938 11.8113 102.04 11.8052C102.427 11.7528 102.798 11.6156 103.127 11.4032L101.96 11.6645C101.951 11.6668 101.941 11.6667 101.931 11.6643C101.922 11.6618 101.913 11.6571 101.906 11.6505C101.899 11.6439 101.893 11.6356 101.89 11.6264C101.886 11.6171 101.885 11.6072 101.887 11.5975C101.898 11.4348 101.946 11.2767 102.027 11.1352C102.366 10.5919 102.735 10.0685 103.133 9.56742C103.194 9.48528 103.281 9.42626 103.38 9.39992C104.458 9.18232 105.471 8.71679 106.34 8.03982C106.567 7.83882 106.553 7.82542 106.34 7.99292C105.448 8.54784 104.46 8.92753 103.427 9.11182C103.41 9.1176 103.393 9.11839 103.376 9.11407C103.359 9.10975 103.344 9.10053 103.333 9.08758C103.322 9.07464 103.314 9.05856 103.312 9.04139C103.31 9.02423 103.312 9.00676 103.32 8.99122C103.378 8.84842 103.449 8.71155 103.533 8.58252C104.267 7.60432 104.773 6.71992 105.44 5.80202C105.864 5.20656 106.249 4.58442 106.593 3.93942C105.713 5.23922 104.967 6.11022 103.3 8.26092L103.22 8.38152L103.153 8.52222C103.113 8.59592 103.093 8.59592 103.073 8.52222L102.667 6.61942C102.667 6.46532 102.613 6.46532 102.593 6.61942C102.555 7.29935 102.641 7.98057 102.847 8.62942C102.886 8.78041 102.891 8.93846 102.861 9.09165C102.831 9.24485 102.767 9.3892 102.673 9.51382C102.587 9.64112 102.247 10.0699 101.673 10.7868C101.62 10.8471 101.587 10.8404 101.567 10.7868L101.093 9.09842C101.093 8.99122 101.047 8.99122 101.04 9.09842C101.067 9.79727 101.198 10.4882 101.427 11.1486C101.45 11.239 101.438 11.3348 101.393 11.4166L100.82 12.5757C100.811 12.5942 100.798 12.6099 100.781 12.6208C100.764 12.6318 100.744 12.6376 100.723 12.6376C100.703 12.6376 100.683 12.6318 100.666 12.6208C100.649 12.6099 100.635 12.5942 100.627 12.5757C98.7333 9.96272 99.8067 6.80702 102.093 4.89082C102.7 4.43209 103.337 4.01571 104 3.64462C104.667 3.26272 105.333 2.86742 106 2.45872C107.157 1.76748 108.248 0.971323 109.26 0.0802234C109.393 -0.0403766 109.413 -0.0269766 109.327 0.133823C109.039 0.669668 108.871 1.26167 108.833 1.86912Z" fill="#FDFDFD"/>
<path d="M93.3934 3.28985C96.5867 4.62985 99.16 7.53765 98.9667 11.2092C98.9483 11.6588 98.8993 12.1065 98.82 12.5492C98.817 12.5687 98.8088 12.587 98.7961 12.6021C98.7835 12.6171 98.7669 12.6284 98.7483 12.6346C98.7297 12.6408 98.7098 12.6418 98.6907 12.6374C98.6716 12.633 98.654 12.6233 98.64 12.6095L97.3067 11.3231C97.2985 11.3089 97.2942 11.2927 97.2942 11.2762C97.2942 11.2598 97.2985 11.2436 97.3067 11.2293C97.3981 10.5017 97.3258 9.76271 97.095 9.06693C96.8642 8.37114 96.4809 7.73633 95.9734 7.20935C95.9734 7.20935 95.94 7.20935 95.9334 7.20935C95.9334 7.20935 95.9334 7.24285 95.9334 7.25625C96.4993 7.99969 96.8333 8.89496 96.8934 9.82905C96.8934 9.96305 96.9334 10.298 96.9734 10.8273C96.9734 10.9881 96.9334 11.0149 96.82 10.9144C96.0689 10.2757 95.2689 9.65931 94.42 9.06525C94.3571 9.01272 94.3062 8.94728 94.2705 8.87332C94.2349 8.79936 94.2154 8.7186 94.2134 8.63645C94.209 7.55171 93.9167 6.48779 93.3667 5.55445C93.3667 5.55445 93.3667 5.55445 93.3334 5.55445C93.3334 5.55445 93.3334 5.55445 93.3334 5.58795C93.6738 6.47205 93.8413 7.41386 93.8267 8.36175C93.8267 8.40195 93.8267 8.40865 93.78 8.36175C91.9308 6.83296 89.9394 5.48674 87.8334 4.34175C89.0934 5.23955 89.94 5.84255 90.3734 6.16415C91.3734 6.91455 92.5 7.83915 93.7534 8.95135C93.7646 8.96173 93.7729 8.97491 93.7774 8.98956C93.782 9.00421 93.7826 9.0198 93.7792 9.03476C93.7758 9.04971 93.7686 9.06351 93.7582 9.07475C93.7478 9.08598 93.7346 9.09426 93.72 9.09875C92.1523 9.52361 90.488 9.40802 88.9934 8.77045C90.4037 9.59082 92.0683 9.85132 93.66 9.50075C94.0334 9.41365 94.1734 9.50075 94.46 9.74865C95.0667 10.2042 95.8733 10.8206 96.86 11.5978C96.8718 11.602 96.882 11.6097 96.8892 11.6199C96.8964 11.6301 96.9003 11.6423 96.9003 11.6548C96.9003 11.6673 96.8964 11.6795 96.8892 11.6897C96.882 11.6999 96.8718 11.7076 96.86 11.7117C96.4267 11.7854 95.9933 11.8792 95.5267 11.9864C95.0821 12.0364 94.6325 12.0183 94.1933 11.9328L94.26 11.9931C95.1757 12.1867 96.1226 12.1753 97.0334 11.9596C97.0536 11.9479 97.0766 11.9417 97.1 11.9417C97.1234 11.9417 97.1464 11.9479 97.1667 11.9596C97.5649 12.2517 97.9177 12.6017 98.2134 12.9981C98.2391 13.0317 98.2567 13.0707 98.2649 13.1122C98.2732 13.1537 98.2717 13.1966 98.2608 13.2374C98.2498 13.2783 98.2296 13.316 98.2017 13.3478C98.1738 13.3795 98.139 13.4043 98.1 13.4202C97.36 13.714 96.5945 13.9383 95.8134 14.0902L93.4 14.1572H92.6334C90.3412 13.8197 88.2751 12.5839 86.8867 10.7201C85.3734 8.66995 84.5934 6.21775 83.7534 4.02015C83.3662 2.84268 82.7724 1.7444 82 0.777347C81.9467 0.717047 81.96 0.703647 82 0.730447C82.8656 1.06111 83.7577 1.31664 84.6667 1.49425C85.3867 1.60145 86.9911 1.85158 89.48 2.24465C90.8189 2.44682 92.1313 2.79735 93.3934 3.28985Z" fill="#FDFDFD"/>
<path d="M114.78 19.2288C114.72 18.2042 114.414 17.2094 113.888 16.3296C113.362 15.4498 112.632 14.7112 111.76 14.177C109.918 13.0547 107.723 12.6719 105.613 13.105C105.127 13.2055 100.44 14.8403 100.36 14.5857L100.74 15.8788L101.727 18.1702C101.78 18.2908 101.827 18.2908 101.867 18.1702C102.102 17.4576 102.434 16.7812 102.853 16.1602C103.449 15.3209 104.136 14.5502 104.9 13.8621C105.013 13.7475 105.157 13.6684 105.313 13.6343C105.478 13.6234 105.632 13.5518 105.747 13.4333C105.848 13.3769 105.965 13.3557 106.08 13.373C105.8 13.6946 105.46 13.9894 105.227 14.2641C104.757 14.8346 104.373 15.4711 104.087 16.1535L103.42 18.1635C103.42 18.2439 103.42 18.2774 103.513 18.264C103.607 18.2506 103.573 18.2305 103.627 18.1769C104.651 17.1343 105.94 16.3929 107.353 16.0329L108.787 15.986V16.0798C108.787 16.0912 108.783 16.1022 108.775 16.1108C108.768 16.1195 108.758 16.1251 108.747 16.1267C108.279 16.1775 107.826 16.321 107.413 16.5488C107.216 16.6485 107.024 16.7603 106.84 16.8838C106.433 17.1719 106.173 17.3729 106.027 17.4801C105.769 17.6858 105.526 17.9097 105.3 18.1501C104.791 18.7042 104.248 19.2256 103.673 19.7112C103.649 19.7322 103.631 19.7595 103.621 19.7901C103.612 19.8207 103.611 19.8534 103.618 19.8846C103.626 19.9158 103.642 19.9443 103.664 19.9669C103.687 19.9895 103.716 20.0054 103.747 20.0127C103.976 20.0806 104.199 20.168 104.413 20.274C105.312 20.7082 106.116 21.3161 106.78 22.0629C106.82 22.1232 106.78 22.15 106.693 22.1433C105.928 21.6462 105.082 21.2879 104.193 21.0847C103.697 20.9237 103.181 20.8356 102.66 20.8234C101.936 20.7937 101.211 20.8796 100.513 21.078C99.0671 21.585 97.6914 22.2763 96.42 23.1349C96.0608 23.3786 95.7414 23.677 95.4734 24.0193C95.4334 24.0193 95.4267 24.0193 95.4734 23.9724C95.8104 23.3458 96.2102 22.7553 96.6667 22.2103C97.2211 21.5796 97.9029 21.0748 98.6667 20.7296C98.6878 20.7191 98.7055 20.7028 98.7178 20.6827C98.7302 20.6626 98.7368 20.6394 98.7368 20.6157C98.7368 20.5921 98.7302 20.5689 98.7178 20.5488C98.7055 20.5287 98.6878 20.5124 98.6667 20.5018C98.2067 20.274 97.6934 20.0931 97.2267 19.8318C96.0736 19.2399 94.8537 18.79 93.5934 18.4918C93.2162 18.41 92.8324 18.3629 92.4467 18.3511C92.3734 18.3511 92.36 18.3109 92.3934 18.2506V18.2104C92.4044 18.1934 92.4191 18.1792 92.4364 18.1687C92.4538 18.1583 92.4732 18.1519 92.4934 18.1501C93.2153 18.0264 93.9487 17.9837 94.68 18.0228C95.8306 18.2109 96.9667 18.4796 98.08 18.8268C98.1334 18.8268 98.1334 18.8134 98.08 18.7866L97.1467 17.8419C96.6734 17.3662 96.1934 17.0647 95.7267 16.6694C95.2949 16.3281 94.8167 16.0506 94.3067 15.8453C94.1985 15.7938 94.0871 15.749 93.9734 15.7113V15.6778C93.9805 15.6737 93.9885 15.6716 93.9967 15.6716C94.0049 15.6716 94.0129 15.6737 94.02 15.6778L94.7934 15.8453C96.4676 16.2687 98.0378 17.0326 99.4067 18.0898C99.56 18.2037 99.7 18.3779 99.84 18.4851C99.98 18.5923 100.047 18.5655 100.007 18.3846L99.4467 15.6644L99.1934 14.9341C96.9902 14.5591 94.7346 14.632 92.56 15.1485C91.2738 15.5899 90.1679 16.4446 89.4134 17.5806C88.6922 18.6045 88.3674 19.8575 88.5 21.1048C88.58 21.7246 88.789 22.3204 89.1134 22.8535C89.5796 23.3713 90.1761 23.7532 90.84 23.959C91.78 24.3141 92.7134 24.6826 93.6534 25.0779C94.2031 25.3409 94.6847 25.7285 95.06 26.2102C95.092 26.25 95.1319 26.2827 95.1771 26.3062C95.2223 26.3296 95.2719 26.3434 95.3227 26.3465C95.3735 26.3497 95.4244 26.3421 95.4721 26.3245C95.5199 26.3068 95.5634 26.2793 95.6 26.2437L96.34 25.4598C96.8137 25.0166 97.4092 24.7272 98.049 24.6292C98.6888 24.5311 99.3432 24.6292 99.9267 24.9104C101.047 25.3928 101.967 25.902 103.26 25.7613C104.827 25.6072 106.32 24.8166 107.727 24.1667C108.485 23.8606 109.285 23.6752 110.1 23.6173C111.227 23.6173 111.933 23.6173 112.22 23.6173C112.57 23.6401 112.921 23.5828 113.247 23.4498C114.513 22.7798 114.867 20.4817 114.78 19.2288ZM91.92 19.2288C91.8112 19.4164 91.6886 19.5956 91.5534 19.7648C91.2449 20.2053 91.0413 20.711 90.9581 21.243C90.8748 21.775 90.9143 22.3192 91.0734 22.8334C91.1334 23.0746 91.2 23.3627 91.2667 23.7044C91.2697 23.7255 91.2675 23.7469 91.2601 23.7668C91.2528 23.7868 91.2406 23.8045 91.2247 23.8185C91.2088 23.8325 91.1897 23.8423 91.1691 23.8469C91.1485 23.8516 91.127 23.851 91.1067 23.8451C90.7184 23.7207 90.3703 23.4942 90.0983 23.1891C89.8264 22.884 89.6406 22.5114 89.56 22.1098C89.4438 21.6637 89.4441 21.1949 89.5608 20.7489C89.6776 20.3029 89.907 19.8947 90.2267 19.5638C90.412 19.3247 90.6596 19.1417 90.942 19.0353C91.2244 18.9289 91.5306 18.9031 91.8267 18.9608C91.8528 18.9642 91.8776 18.9746 91.8983 18.991C91.9191 19.0073 91.935 19.0289 91.9446 19.0536C91.9541 19.0783 91.9569 19.1051 91.9526 19.1312C91.9483 19.1573 91.937 19.1818 91.92 19.202V19.2288Z" fill="#FDFDFD"/>
<path d="M78.3133 16.9307C78.3133 16.2205 77.9933 15.9659 77.3466 15.7917C76.8236 15.6576 76.2864 15.5879 75.7466 15.584C70.7533 15.584 65.7466 16.4751 60.8866 17.1116C59.9386 17.2051 58.9853 17.2342 58.0333 17.1987C57.527 17.1666 57.0271 17.0674 56.5466 16.9039C56.06 16.7632 55.6733 17.2322 55.6 17.6543C55.4666 18.4382 56.1 19.3695 56.6333 19.9122C57.1675 20.4533 57.8772 20.7838 58.6333 20.8435C59.9566 20.9778 61.2932 20.8734 62.58 20.5353C63.3811 20.2763 64.2084 20.1077 65.0466 20.0328C65.0591 20.0324 65.0714 20.0349 65.0827 20.0401C65.094 20.0454 65.1039 20.0532 65.1117 20.0629C65.1194 20.0727 65.1248 20.0841 65.1274 20.0963C65.13 20.1085 65.1298 20.1212 65.1266 20.1333C64.46 22.523 63.8778 24.935 63.38 27.3693C63.0117 29.2383 62.7446 31.126 62.58 33.0241C62.4533 34.4311 62.3733 35.8381 62.3533 37.2451C62.3333 38.6521 62.3533 40.0725 62.4533 41.4862C62.4838 41.9021 62.6142 42.3045 62.8333 42.6587C63.0014 42.9746 63.2469 43.2421 63.5466 43.4359C63.9518 43.611 64.3939 43.6824 64.8333 43.6436C65.0473 43.657 65.2616 43.6252 65.4626 43.5501C65.6635 43.4751 65.8466 43.3586 66 43.2081C66.229 42.9443 66.3886 42.627 66.4643 42.2853C66.54 41.9436 66.5293 41.5882 66.4333 41.2517C66.3466 40.9636 66.2866 40.6621 66.2266 40.3673C66.11 39.7777 66.0431 39.1793 66.0266 38.5784C65.9725 36.3084 66.0861 34.0376 66.3666 31.7846C66.5652 30.1642 66.8523 28.556 67.2266 26.9673C68.2044 23.1394 68.7111 21.1673 68.7466 21.0512C68.881 20.5286 68.9127 19.9847 68.84 19.4499C68.836 19.426 68.8415 19.4014 68.8551 19.3814C68.8688 19.3614 68.8897 19.3476 68.9133 19.3427C70.9865 18.7679 73.14 18.5415 75.2866 18.6727C76.0266 18.7598 76.5266 18.8201 76.7866 18.8603C77.0609 18.9311 77.3504 18.9123 77.6133 18.8067C77.8915 18.5898 78.1042 18.2996 78.2278 17.9684C78.3514 17.6371 78.381 17.2779 78.3133 16.9307ZM143.593 31.4362C143.487 31.4008 143.371 31.4074 143.27 31.4547C143.168 31.502 143.088 31.5864 143.047 31.6908C142.54 32.5551 141.653 34.1832 140.653 34.4177C140.638 34.4219 140.622 34.4225 140.607 34.4194C140.591 34.4162 140.577 34.4095 140.565 34.3997C140.552 34.3899 140.542 34.3774 140.536 34.363C140.529 34.3487 140.526 34.333 140.527 34.3172C140.506 33.4379 140.388 32.5637 140.173 31.7109C139.905 30.5059 139.399 29.3669 138.687 28.3609C138.259 27.8027 137.724 27.3365 137.114 26.9899C136.504 26.6434 135.83 26.4236 135.134 26.3437C134.438 26.2637 133.732 26.3251 133.06 26.5243C132.388 26.7235 131.762 27.0564 131.22 27.5033C129.407 29.1113 128.507 31.6104 128.273 33.9621C128.14 35.2629 128.14 36.5741 128.273 37.8749C128.283 37.9258 128.283 37.9781 128.273 38.029C128.256 38.101 128.222 38.1678 128.173 38.2233C127.556 39.1031 126.826 39.8962 126 40.5817C125.667 40.843 124.807 41.0909 124.393 40.7425C124.19 40.592 124.029 40.3911 123.927 40.1596C123.709 39.5292 123.585 38.8699 123.56 38.2032C123.48 37.0374 123.453 35.8649 123.473 34.6857C123.54 32.4747 123.653 30.7863 123.8 29.6071C123.987 28.1465 124.147 26.84 124.273 25.7077C124.275 25.6194 124.311 25.5352 124.373 25.4727C124.435 25.4102 124.519 25.3744 124.607 25.3727L127.333 25.0578C127.635 25.0516 127.93 24.9636 128.187 24.8032C128.313 24.6633 128.401 24.4922 128.44 24.3074C128.56 23.8719 128.44 23.6374 128.033 23.5771C126.96 23.4441 125.881 23.3703 124.8 23.356C124.779 23.3552 124.759 23.3502 124.741 23.3411C124.722 23.3321 124.706 23.3193 124.693 23.3035C124.68 23.2877 124.67 23.2693 124.664 23.2495C124.659 23.2297 124.657 23.2089 124.66 23.1885C124.874 21.9433 125.172 20.7144 125.553 19.5102C125.78 18.7799 126.06 17.5873 125.02 17.4198C124.265 17.3263 123.502 17.3263 122.747 17.4198C122.577 17.4295 122.413 17.4894 122.277 17.5918C122.141 17.6943 122.037 17.8349 121.98 17.996C121.62 20.0462 121.338 21.7949 121.133 23.2421C121.13 23.2604 121.12 23.2769 121.105 23.2881C121.09 23.2993 121.072 23.3044 121.053 23.3024C120.193 23.2689 117.613 23.222 117.26 24.16C117.225 24.3031 117.225 24.4524 117.26 24.5955C117.264 24.7247 117.296 24.8515 117.354 24.967C117.412 25.0825 117.495 25.1839 117.595 25.2643C117.696 25.3446 117.813 25.4019 117.938 25.4322C118.064 25.4625 118.194 25.465 118.32 25.4397C119.293 25.3325 120.093 25.2789 120.713 25.2655C120.734 25.2653 120.754 25.2695 120.772 25.2778C120.79 25.286 120.807 25.2983 120.82 25.3135C120.833 25.3288 120.843 25.3468 120.849 25.3663C120.855 25.3857 120.856 25.4062 120.853 25.4263C120.422 28.1402 120.137 30.8756 120 33.6204L119.927 35.751C119.921 35.8408 119.901 35.929 119.867 36.0123C119.373 37.1111 118.993 37.9352 118.72 38.4846C118.231 39.4452 117.672 40.3679 117.047 41.245C116.811 41.5889 116.544 41.609 116.247 41.3053C116.059 41.1269 115.912 40.9101 115.816 40.6697C115.719 40.4293 115.675 40.1707 115.687 39.9117C115.635 37.559 115.724 35.2053 115.953 32.8633C116.031 31.9276 115.984 30.9858 115.813 30.0627C115.683 29.2226 115.298 28.4433 114.711 27.8308C114.124 27.2182 113.364 26.8021 112.533 26.639C110.626 26.312 108.665 26.6252 106.953 27.5301C106.55 27.6905 106.176 27.9169 105.847 28.2001C105.247 28.8232 106.067 30.123 106.513 30.6456C106.777 30.9831 107.14 31.2292 107.55 31.3493C107.96 31.4695 108.397 31.4577 108.8 31.3156C108.906 31.2809 108.997 31.2108 109.057 31.1169C109.118 31.023 109.145 30.911 109.133 30.7997C109.087 30.2168 108.98 29.8014 109.367 29.319C109.9 28.649 111.033 28.6021 111.78 28.8165C113.333 29.252 112.913 31.3491 112.707 32.4747C112.705 32.5071 112.696 32.5388 112.681 32.5676C112.666 32.5964 112.645 32.6218 112.62 32.6422C112.553 32.6824 112.48 32.6422 112.393 32.5953C110.911 32.3164 109.379 32.5036 108.007 33.1313C106.335 33.9182 104.957 35.2209 104.073 36.8498C103.407 38.0156 102.593 41.2249 101.22 41.4125C100.553 41.513 100.227 40.5683 100.133 40.0725C99.9492 39.0992 99.8909 38.1061 99.96 37.1178C100.04 36.0458 100.127 34.9671 100.207 33.8951C100.393 32.3675 100.573 30.8332 100.753 29.3056C100.803 29.0424 100.78 28.7705 100.686 28.5199C100.592 28.2692 100.43 28.0496 100.22 27.8852C99.8156 27.5978 99.342 27.4245 98.8485 27.3832C98.3549 27.342 97.8594 27.4343 97.4133 27.6507C96.9972 27.8716 96.6334 28.1801 96.3466 28.5552C95.3474 29.9082 94.5355 31.3912 93.9333 32.9638C93.9333 32.5216 94.0266 32.1062 94.04 31.6707C94.04 30.9069 94.0733 30.1699 94.0733 29.4597C94.085 29.141 94.0376 28.8229 93.9333 28.5217C93.7087 28.1521 93.3902 27.8494 93.0106 27.6445C92.631 27.4396 92.2039 27.34 91.7733 27.3559C90.8466 27.3961 90.52 27.9656 90.0333 28.7964C89.6134 29.5052 89.2415 30.2416 88.92 31.0007L88 33.7611C87.9908 32.2193 88.091 30.6789 88.3 29.1515C88.3523 28.7852 88.428 28.4226 88.5266 28.0661C88.7533 27.2286 88.9 26.0561 87.6533 26.1298C87.5155 26.1298 86.9755 26.2169 86.0333 26.3911C85.5533 26.4715 85.2066 26.6323 85.0933 27.1147C84.8786 28.0102 84.7403 28.9225 84.68 29.8416C84.7047 30.4645 84.6689 31.0883 84.5733 31.7042C84.3236 32.5536 83.7889 33.2899 83.06 33.7879C82.9933 33.8348 82.2333 34.2502 82.2333 34.2569C82.1362 32.5989 81.7172 30.976 81 29.4798C80.6328 28.7337 80.1117 28.0748 79.4714 27.5469C78.8312 27.019 78.0864 26.6341 77.2866 26.4179C75.2 25.9623 72.9933 27.0879 71.7133 28.8165C70.5258 30.5992 69.888 32.6945 69.88 34.8398C69.7319 36.7082 70.0552 38.584 70.82 40.2936C71.2078 41.1476 71.7922 41.8967 72.5247 42.4792C73.2573 43.0616 74.1171 43.4607 75.0333 43.6436C75.9079 43.7371 76.792 43.6247 77.6159 43.3154C78.4398 43.0061 79.1807 42.5083 79.78 41.8614C80.967 40.5511 81.7478 38.9211 82.0266 37.1714C82.0638 36.9417 82.1264 36.717 82.2133 36.5014C82.4092 36.143 82.7092 35.8532 83.0733 35.6706C83.4333 35.4629 83.74 35.2418 84.08 35.0006C84.2908 34.8675 84.476 34.6973 84.6266 34.4981C84.72 34.3842 84.98 34.0291 84.9866 34.3708C84.9866 36.9436 85.3066 39.0206 85.5733 41.9351C85.5733 42.2299 85.6333 42.8195 85.9333 43.0071C86.1971 43.1741 86.5003 43.2677 86.8119 43.2783C87.1234 43.2889 87.4322 43.2161 87.7066 43.0674C88.4066 42.719 88.3733 42.1495 88.3733 41.4326C88.3733 41.1177 88.3733 40.8296 88.3733 40.5683C88.5815 38.5039 88.9583 36.4602 89.5 34.4579C89.8533 33.0308 90.3818 31.6535 91.0733 30.3575C91.2266 30.2972 91.3 30.391 91.3 30.6255C91.3 31.0811 91.2666 32.1129 91.2066 33.7209C91.1812 34.7655 91.2235 35.8107 91.3333 36.8498C91.3281 37.3103 91.4189 37.7667 91.6 38.1898C91.8169 38.5181 92.1287 38.7718 92.4934 38.9168C92.8581 39.0617 93.2583 39.0909 93.64 39.0005C94.1933 38.9268 94.3066 38.565 94.4266 38.0223C94.6266 37.091 94.8666 36.1731 95.1333 35.2619C95.4604 34.0722 95.8726 32.9079 96.3666 31.7779C96.6726 31.0862 97.0222 30.4148 97.4133 29.7679C97.6466 29.3927 97.8 29.4262 97.8666 29.8617C97.9028 30.1195 97.9028 30.3811 97.8666 30.6389C97.7066 32.0124 97.54 33.3859 97.38 34.746C97.2028 36.1974 97.1204 37.6589 97.1333 39.1211C97.18 41.1311 97.8666 43.1411 100.107 43.4493C102.073 43.724 103.14 42.4108 104.107 40.8698C104.124 40.8449 104.147 40.8246 104.173 40.8105C104.2 40.7965 104.23 40.7892 104.26 40.7892C104.29 40.7892 104.32 40.7965 104.347 40.8105C104.373 40.8246 104.396 40.8449 104.413 40.8698C106.213 43.2952 109.367 42.1428 111.013 40.2668C111.54 39.6602 112.015 39.0103 112.433 38.3238C112.442 38.3085 112.455 38.2958 112.47 38.2869C112.485 38.2781 112.502 38.2734 112.52 38.2734C112.538 38.2734 112.555 38.2781 112.57 38.2869C112.585 38.2958 112.598 38.3085 112.607 38.3238C112.637 38.3795 112.655 38.4412 112.66 38.5047C112.734 39.6196 113.028 40.7085 113.527 41.7073C113.727 42.0866 114.012 42.4142 114.359 42.6644C114.706 42.9147 115.106 43.0807 115.528 43.1495C115.949 43.2183 116.381 43.188 116.789 43.061C117.197 42.934 117.571 42.7137 117.88 42.4175C118.768 41.4884 119.486 40.4087 120 39.2283C120.107 39.0005 120.187 39.0139 120.24 39.2283C120.653 41.0172 121.613 43.0808 123.66 43.2081C123.997 43.2418 124.336 43.2418 124.673 43.2081C126.389 42.9015 127.914 41.9232 128.913 40.4879C128.928 40.4644 128.949 40.445 128.974 40.4317C128.998 40.4183 129.025 40.4113 129.053 40.4113C129.081 40.4113 129.109 40.4183 129.133 40.4317C129.157 40.445 129.178 40.4644 129.193 40.4879C129.86 41.7877 130.527 42.7056 131.933 43.2483C133.232 43.7688 134.677 43.7856 135.987 43.2952C137.232 42.7673 138.271 41.8451 138.947 40.6688C139.682 39.3752 140.162 37.9511 140.36 36.4746C140.369 36.4165 140.395 36.3622 140.434 36.3183C140.473 36.2744 140.524 36.2426 140.58 36.2267C141.417 35.9499 142.183 35.4912 142.824 34.8833C143.464 34.2753 143.964 33.533 144.287 32.7092C144.667 32.0191 144.167 31.6774 143.593 31.4362ZM77.7666 40.9435C76.84 42.0624 75.7 42.2835 74.6333 41.1914C73.5666 40.0993 73.1666 37.9821 73.1933 36.4411C73.1933 33.9085 73.9466 28.3542 77.5133 28.3274C78.0598 28.3495 78.5871 28.5362 79.0266 28.8634C79.1733 28.9572 79.16 28.984 78.9933 28.9438C78.7125 28.8587 78.4158 28.8403 78.1266 28.8902C77.6131 29.0398 77.1493 29.3261 76.7843 29.7188C76.4193 30.1116 76.1668 30.5961 76.0533 31.1213C75.7819 32.2307 75.9417 33.4024 76.5 34.3976C77.2866 35.5969 78.2 35.9118 79.5 36.2669C79.5354 36.2764 79.5659 36.2988 79.5857 36.3298C79.6054 36.3608 79.6129 36.3981 79.6066 36.4344C79.3948 38.0729 78.7605 39.6273 77.7666 40.9435ZM79.72 34.8398C78.7733 34.6522 78.0466 34.1698 78.1666 33.1313C78.2069 32.741 78.3128 32.3603 78.48 32.0057C78.6236 31.8068 78.8048 31.6383 79.0133 31.5099C79.047 31.4924 79.0841 31.4823 79.122 31.4803C79.16 31.4784 79.1979 31.4846 79.2332 31.4985C79.2686 31.5125 79.3005 31.5339 79.327 31.5613C79.3535 31.5886 79.3738 31.6214 79.3866 31.6573C79.5125 31.9896 79.5976 32.3361 79.64 32.6891C79.72 33.403 79.7467 34.1219 79.72 34.8398ZM107.4 39.8112C107.344 39.803 107.29 39.7837 107.241 39.7542C107.192 39.7247 107.15 39.6857 107.116 39.6395C107.082 39.5933 107.058 39.5408 107.045 39.4852C107.032 39.4295 107.031 39.3718 107.04 39.3154C107.38 36.6354 109.933 35.8247 110.927 35.617C110.974 35.606 111.023 35.6058 111.071 35.6164C111.119 35.6271 111.163 35.6483 111.201 35.6785C111.24 35.7086 111.271 35.7471 111.293 35.7909C111.314 35.8348 111.326 35.8829 111.327 35.9319C111.333 38.5248 108.047 39.8715 107.4 39.8045V39.8112ZM133.733 41.7475C133.301 41.562 132.919 41.2766 132.618 40.9145C132.317 40.5523 132.105 40.1238 132 39.6638C131.598 38.1629 131.471 36.6007 131.627 35.0542C131.725 33.2601 132.234 31.513 133.113 29.9488C133.417 29.4517 133.821 29.0247 134.3 28.6959C134.768 28.4152 135.31 28.2853 135.853 28.3237C136.397 28.362 136.916 28.5667 137.34 28.9103C137.387 28.9438 137.373 28.9572 137.34 28.9505L136.96 28.9103C136.468 28.8566 135.974 28.9879 135.573 29.2788C134.942 29.7538 134.502 30.4411 134.333 31.2151C134.108 32.1429 134.159 33.1168 134.48 34.0157C135.033 35.5433 136.313 36.1061 137.813 36.354C137.828 36.3564 137.843 36.3618 137.856 36.3699C137.868 36.378 137.879 36.3886 137.888 36.4011C137.897 36.4136 137.903 36.4278 137.906 36.4427C137.909 36.4576 137.91 36.473 137.907 36.488C137.527 38.3305 136.353 42.4912 133.733 41.7408V41.7475ZM138 34.8398C137.766 34.8388 137.535 34.7837 137.326 34.6788C137.116 34.5739 136.934 34.422 136.792 34.2348C136.65 34.0477 136.553 33.8303 136.508 33.5994C136.463 33.3686 136.472 33.1305 136.533 32.9035C136.62 32.38 136.889 31.9048 137.293 31.5635C137.329 31.535 137.371 31.5152 137.416 31.5054C137.46 31.4957 137.507 31.4963 137.551 31.5073C137.595 31.5183 137.637 31.5393 137.672 31.5688C137.707 31.5983 137.735 31.6354 137.753 31.6774C137.997 32.2644 138.111 32.8977 138.087 33.5333V34.7661C138.083 34.7868 138.073 34.8056 138.057 34.8192C138.041 34.8327 138.021 34.84 138 34.8398Z" fill="#FDFDFD"/>
<path d="M78.1867 48.7091C77.8734 47.6036 76.6667 47.1681 75.6334 47.1279C74.7667 47.1279 73.8 47.1279 72.7334 47.2016C72.6867 47.2016 72.6667 47.2016 72.6667 47.2753V54.1227C72.6667 54.166 72.6833 54.2076 72.7131 54.2389C72.743 54.2701 72.7836 54.2885 72.8267 54.2902H74.16C74.1883 54.2902 74.2154 54.2789 74.2354 54.2588C74.2554 54.2387 74.2667 54.2115 74.2667 54.183V51.7576C74.2667 51.7328 74.2765 51.7089 74.294 51.6913C74.3115 51.6737 74.3353 51.6638 74.36 51.6638C75.1737 51.72 75.9911 51.6568 76.7867 51.4762C77.3319 51.2879 77.7828 50.8939 78.044 50.3775C78.3053 49.8611 78.3565 49.2628 78.1867 48.7091ZM76.6667 49.4528C76.6667 49.8883 76.1667 50.2367 75.5534 50.23H74.3067C74.2837 50.23 74.2617 50.2209 74.2454 50.2045C74.2291 50.1882 74.22 50.166 74.22 50.1429V48.488C74.22 48.4769 74.2222 48.4659 74.2267 48.4556C74.2311 48.4454 74.2376 48.4362 74.2458 48.4287C74.2539 48.4211 74.2635 48.4153 74.274 48.4117C74.2845 48.4081 74.2956 48.4067 74.3067 48.4076H75.5467C76.16 48.4076 76.66 48.7694 76.6534 49.2049L76.6667 49.4528Z" fill="#FDFDFD"/>
<path d="M99.1533 52.6554C99.2142 52.6089 99.2645 52.5499 99.301 52.4823C99.3375 52.4148 99.3593 52.3403 99.365 52.2636C99.3707 52.187 99.3601 52.11 99.3339 52.0378C99.3078 51.9655 99.2667 51.8997 99.2133 51.8447C98.9098 51.6124 98.5556 51.4562 98.18 51.3891C96.92 51.1144 95.1133 50.9402 95.18 49.1513C95.2733 46.6053 98.56 46.9068 100.167 47.4495C100.192 47.4534 100.216 47.4632 100.237 47.478C100.258 47.4929 100.276 47.5124 100.288 47.5351C100.3 47.5578 100.307 47.5831 100.308 47.6089C100.309 47.6347 100.304 47.6604 100.293 47.684L100 48.7158C99.9935 48.7379 99.9823 48.7583 99.9673 48.7756C99.9522 48.793 99.9336 48.8069 99.9128 48.8165C99.8919 48.826 99.8693 48.8309 99.8464 48.8309C99.8234 48.8308 99.8008 48.8259 99.78 48.8163C98.9833 48.4045 98.0697 48.2815 97.1933 48.4679C97.1152 48.4759 97.0396 48.5 96.9711 48.5386C96.9027 48.5773 96.8429 48.6296 96.7954 48.6924C96.7479 48.7552 96.7137 48.8272 96.695 48.9038C96.6763 48.9804 96.6735 49.0601 96.6866 49.1379C96.6904 49.183 96.7092 49.2255 96.74 49.2585C96.9148 49.4635 97.1472 49.6106 97.4066 49.6806C98.8866 50.0022 101.46 50.2702 100.92 52.5214C100.811 52.9491 100.58 53.3356 100.256 53.6332C99.9311 53.9308 99.5271 54.1265 99.0933 54.1964C97.7149 54.493 96.2796 54.367 94.9733 53.8346C94.9399 53.8258 94.9088 53.8099 94.882 53.7879C94.8553 53.766 94.8336 53.7385 94.8184 53.7073C94.8032 53.6761 94.7949 53.642 94.794 53.6073C94.7931 53.5727 94.7997 53.5382 94.8133 53.5063L95.0466 52.6487C95.0495 52.6188 95.0598 52.5901 95.0764 52.5651C95.0931 52.5402 95.1157 52.5199 95.1421 52.5059C95.1686 52.4919 95.1981 52.4848 95.228 52.4852C95.2579 52.4855 95.2872 52.4934 95.3133 52.508C96.2992 52.9009 97.3662 53.0436 98.42 52.9234C98.6845 52.9043 98.9384 52.8115 99.1533 52.6554Z" fill="#FDFDFD"/>
<path d="M118.26 52.8362C118.279 52.8293 118.296 52.8167 118.308 52.7999C118.32 52.7831 118.326 52.763 118.327 52.7424V50.7324C118.328 50.7069 118.34 50.6831 118.358 50.6656C118.377 50.6482 118.401 50.6386 118.427 50.6386H119.76C119.79 50.6386 119.819 50.6506 119.84 50.672C119.861 50.6933 119.873 50.7223 119.873 50.7525V53.6938C119.873 53.7375 119.86 53.7801 119.836 53.8168C119.813 53.8534 119.779 53.8828 119.74 53.9015C119.144 54.1538 118.511 54.3077 117.867 54.3571C116.653 54.4375 115.567 54.3571 114.633 53.5598C114.126 53.1406 113.768 52.5668 113.613 51.925C113.429 51.0705 113.464 50.1831 113.713 49.3455C114.667 46.9134 117.22 46.7794 119.473 47.5097C119.516 47.5235 119.552 47.552 119.575 47.5901C119.598 47.6282 119.607 47.6733 119.6 47.7174L119.407 48.7157C119.402 48.7354 119.394 48.7539 119.382 48.77C119.369 48.7861 119.354 48.7993 119.336 48.8088C119.318 48.8184 119.299 48.824 119.279 48.8252C119.259 48.8265 119.239 48.8234 119.22 48.8162C117.853 48.2869 115.807 48.0323 115.267 49.8145C115.138 50.2377 115.102 50.684 115.162 51.1226C115.221 51.5611 115.376 51.9812 115.613 52.3538C116.213 53.0841 117.373 53.064 118.26 52.8362Z" fill="#FDFDFD"/>
<path d="M86.3133 53.9618L84.6667 51.5163C84.6474 51.4855 84.6401 51.4486 84.6462 51.4127C84.6524 51.3768 84.6715 51.3445 84.7 51.322C85.1277 51.0134 85.4432 50.5726 85.5985 50.067C85.7538 49.5614 85.7403 49.0186 85.56 48.5214C85.382 48.1344 85.101 47.8044 84.748 47.5679C84.3951 47.3314 83.9839 47.1976 83.56 47.1814C82.4844 47.0841 81.4023 47.0841 80.3267 47.1814C80.3141 47.1812 80.3016 47.1838 80.2901 47.189C80.2786 47.1942 80.2684 47.2019 80.2601 47.2114C80.2519 47.221 80.2458 47.2322 80.2423 47.2444C80.2388 47.2566 80.238 47.2694 80.24 47.2819V54.1494C80.2391 54.1666 80.2417 54.1839 80.2476 54.2001C80.2536 54.2164 80.2628 54.2312 80.2746 54.2438C80.2865 54.2563 80.3008 54.2663 80.3166 54.2731C80.3324 54.2799 80.3494 54.2834 80.3667 54.2834H81.6533C81.6688 54.2834 81.6841 54.2802 81.6983 54.2741C81.7125 54.268 81.7253 54.259 81.7359 54.2477C81.7465 54.2364 81.7547 54.223 81.76 54.2084C81.7653 54.1938 81.7676 54.1783 81.7667 54.1628V51.925C81.7684 51.8977 81.7803 51.8721 81.8002 51.8535C81.82 51.8348 81.8461 51.8244 81.8733 51.8245H82.9267C83.0047 51.8242 83.0815 51.8444 83.1493 51.8832C83.2172 51.922 83.2737 51.978 83.3133 52.0456C83.6867 52.6821 83.98 53.2181 84.2333 53.6335C84.3006 53.7962 84.4082 53.9389 84.5459 54.048C84.6836 54.1571 84.8468 54.2289 85.02 54.2566C85.4169 54.2947 85.8165 54.2947 86.2133 54.2566C86.2467 54.2549 86.2788 54.2433 86.3055 54.2231C86.3322 54.2029 86.3522 54.1751 86.363 54.1433C86.3738 54.1115 86.3748 54.0772 86.3659 54.0449C86.3571 54.0125 86.3387 53.9835 86.3133 53.9618ZM84.12 49.5063C84.0897 49.7928 83.948 50.0556 83.7257 50.2376C83.5034 50.4196 83.2186 50.5059 82.9333 50.4778H81.88C81.8698 50.4787 81.8596 50.4775 81.8499 50.4742C81.8402 50.4709 81.8313 50.4657 81.8238 50.4587C81.8162 50.4518 81.8102 50.4433 81.8061 50.4339C81.802 50.4245 81.7999 50.4143 81.8 50.4041V48.4946C81.8 48.475 81.8077 48.4563 81.8215 48.4425C81.8352 48.4286 81.8539 48.4209 81.8733 48.4209H82.9333C83.2183 48.3926 83.503 48.4778 83.7262 48.6582C83.9493 48.8386 84.0931 49.0998 84.1267 49.3857L84.12 49.5063Z" fill="#FDFDFD"/>
<path d="M89.88 51.2148C89.8552 51.2148 89.8315 51.2247 89.814 51.2423C89.7965 51.2599 89.7866 51.2837 89.7866 51.3086V52.8362C89.7866 52.8593 89.7958 52.8815 89.812 52.8978C89.8283 52.9141 89.8503 52.9233 89.8733 52.9233H93.0933C93.1411 52.9233 93.1868 52.9424 93.2206 52.9763C93.2543 53.0102 93.2733 53.0562 93.2733 53.1042V54.136C93.2767 54.1588 93.2747 54.1821 93.2675 54.2039C93.2603 54.2258 93.2482 54.2457 93.232 54.262C93.2158 54.2782 93.196 54.2905 93.1742 54.2977C93.1525 54.3049 93.1293 54.3069 93.1066 54.3035H88.3333C88.3015 54.3035 88.271 54.2908 88.2485 54.2682C88.226 54.2456 88.2133 54.2149 88.2133 54.1829V47.302C88.2133 47.2747 88.2236 47.2484 88.2422 47.2285C88.2608 47.2086 88.2862 47.1965 88.3133 47.1948H92.9266C93.04 47.1948 93.1 47.2484 93.1 47.3623L93.1466 48.3137C93.15 48.3374 93.1478 48.3615 93.1403 48.3842C93.1327 48.4068 93.1201 48.4274 93.1033 48.4443C93.0864 48.4612 93.0659 48.4739 93.0434 48.4815C93.0208 48.4891 92.9969 48.4913 92.9733 48.4879H89.94C89.8975 48.4879 89.8568 48.5049 89.8268 48.535C89.7968 48.5652 89.78 48.6061 89.78 48.6487V49.7877C89.7766 49.8096 89.7783 49.832 89.7852 49.8531C89.792 49.8742 89.8037 49.8933 89.8193 49.909C89.8349 49.9247 89.854 49.9364 89.8749 49.9433C89.8959 49.9502 89.9182 49.952 89.94 49.9485H92.1C92.1227 49.9485 92.1453 49.953 92.1663 49.9618C92.1873 49.9705 92.2064 49.9834 92.2225 49.9995C92.2386 50.0157 92.2514 50.0349 92.2601 50.0561C92.2688 50.0772 92.2733 50.0998 92.2733 50.1227V51.1344C92.2733 51.255 92.2133 51.3086 92.0933 51.3086L89.88 51.2148Z" fill="#FDFDFD"/>
<path d="M104.827 47.1815H107.84C107.863 47.1769 107.887 47.178 107.91 47.1847C107.932 47.1913 107.953 47.2034 107.97 47.2199C107.987 47.2363 108 47.2566 108.007 47.2791C108.015 47.3016 108.017 47.3256 108.013 47.349V48.3406C108.016 48.357 108.014 48.3736 108.009 48.3893C108.003 48.4049 107.995 48.4191 107.983 48.4308C107.971 48.4425 107.957 48.4513 107.942 48.4566C107.926 48.4618 107.91 48.4634 107.893 48.4612H105.753C105.729 48.4612 105.705 48.4711 105.687 48.4887C105.67 48.5063 105.66 48.5301 105.66 48.555V54.1763C105.662 54.1927 105.661 54.2093 105.655 54.225C105.65 54.2406 105.641 54.2548 105.63 54.2665C105.618 54.2782 105.604 54.287 105.588 54.2923C105.573 54.2975 105.556 54.2991 105.54 54.2969H104.873H104.207C104.19 54.2991 104.174 54.2975 104.158 54.2923C104.143 54.287 104.129 54.2782 104.117 54.2665C104.105 54.2548 104.097 54.2406 104.091 54.225C104.086 54.2093 104.084 54.1927 104.087 54.1763L104 48.5483C104 48.5228 103.99 48.4982 103.973 48.4795C103.956 48.4608 103.932 48.4495 103.907 48.4478H101.767C101.751 48.4498 101.735 48.4483 101.72 48.4434C101.705 48.4385 101.691 48.4303 101.68 48.4194C101.668 48.4085 101.659 48.3952 101.654 48.3804C101.648 48.3656 101.646 48.3497 101.647 48.3339V47.3557C101.647 47.2418 101.707 47.1882 101.82 47.1882C102.713 47.1949 103.713 47.1882 104.827 47.1815Z" fill="#FDFDFD"/>
<path d="M111.302 47.1601L109.968 47.1624C109.906 47.1625 109.855 47.2136 109.855 47.2765L109.867 54.1842C109.867 54.2471 109.918 54.298 109.981 54.2979L111.314 54.2956C111.377 54.2954 111.427 54.2444 111.427 54.1815L111.415 47.2738C111.415 47.2109 111.364 47.16 111.302 47.1601Z" fill="#FDFDFD"/>
<path d="M123.78 52.9301H127.033C127.05 52.9301 127.066 52.9334 127.081 52.9399C127.096 52.9464 127.109 52.9558 127.121 52.9678C127.132 52.9797 127.141 52.9938 127.146 53.0092C127.152 53.0246 127.154 53.041 127.153 53.0574V54.1696C127.154 54.186 127.152 54.2024 127.146 54.2178C127.141 54.2332 127.132 54.2473 127.121 54.2592C127.109 54.2712 127.096 54.2806 127.081 54.2871C127.066 54.2936 127.05 54.2969 127.033 54.2969H122.213C122.197 54.2969 122.181 54.2936 122.166 54.2871C122.151 54.2806 122.137 54.2712 122.126 54.2592C122.115 54.2473 122.106 54.2332 122.1 54.2178C122.095 54.2024 122.092 54.186 122.093 54.1696V47.3021C122.092 47.2857 122.095 47.2693 122.1 47.2539C122.106 47.2385 122.115 47.2244 122.126 47.2125C122.137 47.2005 122.151 47.1911 122.166 47.1846C122.181 47.1781 122.197 47.1748 122.213 47.1748H126.88C126.914 47.1748 126.946 47.1882 126.97 47.2121C126.993 47.236 127.007 47.2683 127.007 47.3021V48.3339C127.005 48.3671 126.991 48.3986 126.968 48.4221C126.944 48.4456 126.913 48.4596 126.88 48.4612H123.787C123.754 48.4612 123.723 48.4736 123.699 48.4961C123.676 48.5185 123.662 48.5492 123.66 48.5818V49.7744C123.662 49.8076 123.675 49.8391 123.699 49.8626C123.722 49.8861 123.754 49.9001 123.787 49.9017H126.027C126.044 49.9007 126.06 49.9034 126.076 49.9094C126.092 49.9155 126.106 49.9248 126.118 49.9368C126.13 49.9488 126.14 49.9633 126.146 49.9792C126.152 49.995 126.154 50.012 126.153 50.029V51.1077C126.153 51.1415 126.14 51.1738 126.116 51.1977C126.092 51.2216 126.06 51.235 126.027 51.235H123.773C123.757 51.235 123.741 51.2383 123.726 51.2448C123.711 51.2513 123.697 51.2607 123.686 51.2727C123.675 51.2846 123.666 51.2987 123.66 51.3141C123.655 51.3295 123.652 51.3459 123.653 51.3623V52.8028C123.653 52.8366 123.667 52.8689 123.69 52.8928C123.714 52.9167 123.746 52.9301 123.78 52.9301Z" fill="#FDFDFD"/>
<path d="M81.12 59.6299C81.8401 59.3308 82.5137 58.9292 83.12 58.4373L83.3333 58.2899C83.5993 58.0794 83.8992 57.9163 84.22 57.8075C84.8467 57.6534 85.7867 57.6668 86.1667 58.3703C86.4267 58.8728 86.2667 59.2815 85.68 59.6031C85.4836 59.7135 85.2533 59.7465 85.0339 59.6957C84.8146 59.645 84.6219 59.514 84.4933 59.3284C84.4607 59.2467 84.4607 59.1555 84.4933 59.0738C84.5133 59.0255 84.543 58.9819 84.5807 58.9459C84.6183 58.9098 84.6631 58.8821 84.712 58.8644C84.761 58.8467 84.8131 58.8395 84.865 58.8433C84.9169 58.847 84.9674 58.8617 85.0133 58.8862C85.0533 58.8862 85.0933 58.9398 85.0867 58.98C85.0757 59.0021 85.0566 59.0189 85.0333 59.0269C84.9743 59.0478 84.9142 59.0657 84.8533 59.0805C84.7949 59.0971 84.7434 59.1324 84.7067 59.181C84.6852 59.2138 84.6737 59.2522 84.6737 59.2915C84.6737 59.3308 84.6852 59.3693 84.7067 59.4021C84.7318 59.4566 84.7689 59.5048 84.815 59.5431C84.8612 59.5813 84.9153 59.6087 84.9733 59.6232C85.2667 59.7036 85.48 59.4155 85.5533 59.1609C85.5952 59.0098 85.5794 58.8485 85.5091 58.7084C85.4388 58.5684 85.3191 58.4598 85.1733 58.4038H85.1133C84.8706 58.312 84.6065 58.2934 84.3533 58.3502C84.0765 58.4328 83.8086 58.5428 83.5533 58.6785C82.8968 59.066 82.2048 59.3891 81.4867 59.6433C81.3746 59.6837 81.2521 59.6837 81.14 59.6433L81.12 59.6299Z" fill="#FDFDFD"/>
<path d="M120.467 59.6302C119.746 59.3326 119.072 58.9309 118.467 58.4376L118.273 58.3035C118.008 58.0917 117.708 57.9284 117.387 57.8212C116.767 57.6671 115.82 57.6805 115.447 58.384C115.18 58.8865 115.34 59.2952 115.927 59.6168C116.123 59.7272 116.353 59.7602 116.573 59.7094C116.792 59.6586 116.985 59.5277 117.113 59.3421C117.155 59.2754 117.171 59.1962 117.16 59.1185C117.15 59.0407 117.112 58.9692 117.054 58.9166C116.996 58.8639 116.921 58.8334 116.843 58.8303C116.765 58.8273 116.689 58.8519 116.627 58.8999C116.587 58.8999 116.547 58.9535 116.56 58.9937C116.564 59.0044 116.57 59.0141 116.578 59.0222C116.586 59.0302 116.596 59.0365 116.607 59.0406C116.666 59.0615 116.726 59.0794 116.787 59.0941C116.847 59.1104 116.901 59.1456 116.94 59.1947C116.958 59.2287 116.968 59.2666 116.968 59.3052C116.968 59.3438 116.958 59.3817 116.94 59.4158C116.912 59.4687 116.873 59.5152 116.826 59.5521C116.779 59.589 116.725 59.6156 116.667 59.6302C116.373 59.7106 116.16 59.4225 116.087 59.1679C116.045 59.0168 116.061 58.8554 116.131 58.7154C116.201 58.5754 116.321 58.4667 116.467 58.4108H116.527C116.769 58.319 117.034 58.3003 117.287 58.3572C117.563 58.4398 117.831 58.5498 118.087 58.6854C118.743 59.0729 119.435 59.396 120.153 59.6503C120.265 59.6907 120.388 59.6907 120.5 59.6503L120.467 59.6302Z" fill="#FDFDFD"/>
<path d="M117.207 59.8442C116.994 60.0401 116.726 60.1643 116.44 60.1993C115.33 60.3188 114.209 60.2895 113.107 60.1122C111.924 59.9335 110.222 59.6521 108 59.268C105.493 58.8392 102.92 58.8727 100.927 60.6549C100.92 60.6622 100.912 60.668 100.902 60.672C100.893 60.676 100.883 60.678 100.873 60.678C100.863 60.678 100.853 60.676 100.844 60.672C100.835 60.668 100.827 60.6622 100.82 60.6549C99.9231 59.8589 98.8165 59.3401 97.6333 59.1608C95.7994 58.9484 93.9426 59.0595 92.1467 59.4891C90.5729 59.8079 88.9843 60.0472 87.3867 60.206C86.5733 60.2931 84.7867 60.3601 84.2133 59.7705C84.2133 59.7705 84.2133 59.7705 84.2133 59.804C84.5527 60.152 84.9585 60.4275 85.4064 60.6141C85.8544 60.8006 86.3352 60.8942 86.82 60.8894C86.8533 60.8894 86.8533 60.8894 86.82 60.8894C88.1629 60.9421 89.507 60.8228 90.82 60.5343C92.8313 60.1336 94.8762 59.9272 96.9267 59.9179C98.0682 59.9444 99.1838 60.265 100.167 60.8492C100.207 60.864 100.242 60.8882 100.271 60.9198C100.3 60.9514 100.321 60.9895 100.332 61.0308C100.343 61.0722 100.344 61.1156 100.335 61.1574C100.326 61.1992 100.307 61.2383 100.28 61.2713L100.04 61.7001C100.025 61.7373 100.001 61.7702 99.9709 61.7958C99.9404 61.8215 99.9039 61.8391 99.8649 61.847C99.8259 61.855 99.7855 61.8531 99.7474 61.8415C99.7093 61.8299 99.6747 61.8089 99.6467 61.7805C98.8512 61.2163 97.9399 60.8386 96.98 60.675C94.6723 60.333 92.3199 60.456 90.06 61.0368C89.46 61.1775 88.7267 61.2177 88.14 61.3182C87.8067 61.3718 87.8067 61.4254 88.14 61.4857C88.8273 61.598 89.5254 61.6295 90.22 61.5795C91.5533 61.479 92.5666 61.4187 93.2266 61.3852C94.6215 61.3297 96.0158 61.5063 97.3533 61.9078H97.44C97.79 62.0385 98.1308 62.1929 98.46 62.3701C98.641 62.4605 98.8129 62.5682 98.9733 62.6917C99.5565 63.1939 100.013 63.8275 100.307 64.5409C100.476 64.9241 100.597 65.327 100.667 65.7402C100.707 65.9501 100.74 66.1578 100.767 66.3633C100.767 66.4638 100.767 66.5643 100.767 66.6648C100.767 66.7653 100.82 66.8926 100.767 66.9395C100.86 66.7277 100.914 66.5007 100.927 66.2695C100.927 66.1288 100.96 65.9814 100.987 65.834C101.097 65.2355 101.297 64.6572 101.58 64.1188C101.838 63.5769 102.219 63.1039 102.693 62.7386C103.038 62.5002 103.412 62.3087 103.807 62.1691C105.304 61.6353 106.886 61.3832 108.473 61.4254C109.727 61.4254 111.72 61.7269 113.407 61.4254C113.673 61.3852 113.673 61.345 113.407 61.3115C112.593 61.2043 111.693 61.0502 110.693 60.8492C108.872 60.4788 107.003 60.4132 105.16 60.6549C104.024 60.7674 102.936 61.1712 102 61.8274C101.84 61.948 101.72 61.9212 101.627 61.747L101.387 61.2914C101.362 61.257 101.346 61.2176 101.339 61.1761C101.332 61.1345 101.334 61.0919 101.346 61.0514C101.357 61.0109 101.378 60.9735 101.406 60.942C101.433 60.9105 101.468 60.8856 101.507 60.8693C103.131 59.968 105.011 59.6468 106.84 59.9581C108.342 60.1278 109.778 60.3378 111.147 60.5879C112.309 60.8035 113.491 60.8956 114.673 60.8626C115.593 60.8468 116.472 60.4804 117.133 59.8375C117.144 59.8436 117.157 59.8473 117.169 59.8484C117.182 59.8496 117.195 59.8481 117.207 59.8442ZM101.873 62.6649C101.358 63.3368 101.002 64.1183 100.833 64.9496C100.702 64.1199 100.387 63.3302 99.9133 62.6381L101.873 62.6649Z" fill="#FDFDFD"/>
<path d="M104.953 63.0669C105.105 63.0041 105.228 62.8874 105.299 62.7391C105.371 62.5908 105.385 62.4213 105.34 62.263C105.34 62.196 105.34 62.1691 105.413 62.1825C105.508 62.1922 105.597 62.2308 105.668 62.2931C105.74 62.3555 105.79 62.4386 105.813 62.531C106.06 63.3551 105.347 63.7637 104.647 63.7838C104 63.8151 103.362 63.6289 102.833 63.2546C102.567 63.067 102.58 63.0402 102.88 63.1742C103.207 63.3309 103.568 63.4032 103.93 63.3845C104.292 63.3658 104.644 63.2567 104.953 63.0669Z" fill="#FDFDFD"/>
<path d="M96.62 63.0605C96.4682 62.9963 96.3455 62.878 96.2753 62.7284C96.2051 62.5787 96.1926 62.4082 96.24 62.2498C96.24 62.1828 96.2133 62.156 96.16 62.1694C96.0669 62.1803 95.9794 62.2195 95.9091 62.2817C95.8388 62.344 95.7891 62.4263 95.7667 62.5178C95.5133 63.3419 96.2267 63.7506 96.9267 63.7707C97.5729 63.802 98.211 63.6157 98.74 63.2414C99.0067 63.0538 98.9933 63.027 98.7 63.161C98.3717 63.317 98.0102 63.3894 97.6475 63.3719C97.2848 63.3544 96.9319 63.2474 96.62 63.0605Z" fill="#FDFDFD"/>
</svg>
