<svg width="231" height="77" viewBox="0 0 231 77" fill="none" xmlns="http://www.w3.org/2000/svg">
<g clip-path="url(#clip0_102_153)">
<path d="M62.1017 19.7033C63.3437 21.298 64.233 22.6243 66.2953 22.816C68.348 22.9025 70.4006 22.6434 72.3673 22.0493C72.3937 22.0365 72.4233 22.032 72.4523 22.0363C72.4812 22.0405 72.5082 22.0535 72.5298 22.0733C72.5513 22.0932 72.5663 22.1191 72.5729 22.1476C72.5795 22.1762 72.5773 22.206 72.5667 22.2333L72.3597 23.184C71.501 23.3833 70.627 23.575 69.7453 23.7437C68.7173 23.9376 67.669 24.002 66.625 23.9353C64.21 23.7897 62.2473 22.6857 61.6647 20.332C61.4193 19.3277 61.933 19.4273 61.9483 19.1513C61.9637 18.8753 62.025 19.1513 62.1247 19.3277L62.1017 19.7033Z" fill="#96662C"/>
<path d="M135.165 26.3733C135.356 26.8775 135.717 27.2988 136.186 27.5636C136.656 27.8284 137.203 27.92 137.733 27.8223L139.374 27.6C139.39 27.5989 139.407 27.6013 139.422 27.607C139.438 27.6128 139.452 27.6218 139.463 27.6334C139.475 27.645 139.484 27.659 139.49 27.6744C139.495 27.6898 139.498 27.7063 139.497 27.7227L139.412 28.6963C138.76 28.8947 138.09 29.0257 137.411 29.0873C137.11 29.1217 136.805 29.0879 136.518 28.9884C136.231 28.8889 135.971 28.7262 135.755 28.5123C135.451 28.2583 135.231 27.9174 135.126 27.5351C135.02 27.1529 135.034 26.7476 135.165 26.3733Z" fill="#96662C"/>
<path d="M144.12 37.421C144.235 35.8263 144.342 34.2393 144.557 32.637C144.687 31.694 144.748 30.521 144.932 29.5243C145.001 29.1257 145.055 28.7577 145.086 28.313C145.089 28.2706 145.107 28.2307 145.136 28.1999C145.165 28.1692 145.204 28.1495 145.247 28.1443C146.371 28.0063 147.498 27.8453 148.628 27.6613C148.907 27.6355 149.17 27.5187 149.376 27.329C149.582 27.1392 149.721 26.887 149.77 26.611C149.77 26.5497 149.77 26.4653 149.77 26.4347C149.77 26.404 149.923 26.1893 149.946 26.2583C150.284 27.1477 149.946 28.497 149.042 28.6887C148.137 28.8803 146.849 29.1027 145.507 29.2943C145.461 29.3033 145.418 29.3266 145.385 29.3609C145.352 29.3952 145.33 29.4389 145.323 29.486C144.986 32.2613 144.707 35.2488 144.488 38.4483C144.271 39.9241 144.143 41.4115 144.104 42.9027C143.951 43.1173 143.959 42.9027 143.928 42.9027C143.916 42.7854 143.916 42.6673 143.928 42.55C143.752 42.3737 143.767 42.2587 143.752 42.021C143.637 40.572 144.089 38.87 144.12 37.421Z" fill="#96662C"/>
<path d="M169.167 35.8877C169.126 36.1135 169.048 36.331 168.937 36.5317C168.5 37.2983 168.17 37.8273 167.894 38.203C167.037 39.4389 165.857 40.415 164.482 41.0243C164.427 41.0471 164.381 41.0876 164.352 41.1393C164.298 41.2194 164.257 41.3073 164.229 41.4C163.938 42.5577 163.67 43.5007 163.463 44.2213C163.259 44.7813 163.003 45.3205 162.696 45.8313C161.919 47.2144 160.772 48.3535 159.384 49.1203C158.04 49.8402 156.489 50.0783 154.991 49.795C153.725 49.6495 152.519 49.1736 151.495 48.415C150.933 47.904 150.42 47.3419 149.962 46.736C149.95 46.7229 149.936 46.7125 149.92 46.7053C149.904 46.6982 149.887 46.6945 149.87 46.6945C149.852 46.6945 149.835 46.6982 149.819 46.7053C149.803 46.7125 149.789 46.7229 149.778 46.736C149.114 47.5061 148.304 48.1365 147.394 48.5906C146.485 49.0447 145.494 49.3134 144.48 49.381C143.866 49.4434 143.247 49.3797 142.659 49.1938C142.071 49.0079 141.527 48.7038 141.061 48.3C140.303 47.6453 139.691 46.838 139.267 45.931C139.26 45.9146 139.248 45.9006 139.233 45.8908C139.218 45.881 139.2 45.8758 139.182 45.8758C139.164 45.8758 139.147 45.881 139.132 45.8908C139.117 45.9006 139.105 45.9146 139.098 45.931C138.445 47.0801 137.531 48.0597 136.43 48.7907C135.865 49.102 135.24 49.2872 134.596 49.3335C133.953 49.3799 133.308 49.2862 132.704 49.059C131.171 48.53 130.228 46.6287 129.867 45.172C129.861 45.1503 129.85 45.1305 129.834 45.1145C129.819 45.0985 129.799 45.0869 129.777 45.0807C129.756 45.0745 129.733 45.074 129.711 45.0793C129.689 45.0845 129.669 45.0954 129.653 45.1107C129.285 45.5017 128.963 45.8313 128.687 46.092C126.502 48.185 123.205 48.9747 120.614 47.1193C120.581 47.0875 120.537 47.0697 120.491 47.0697C120.445 47.0697 120.401 47.0875 120.368 47.1193C120.009 47.5872 119.589 48.0049 119.119 48.3613C116.819 50.2857 113.361 49.8947 112.035 47.127C111.7 46.5284 111.516 45.8575 111.498 45.172C111.498 44.8807 111.429 44.5817 111.46 44.2827L111.552 43.0177C111.674 41.3412 111.766 39.6571 111.828 37.9653C111.828 37.8273 111.828 37.697 111.828 37.559C111.828 37.421 111.973 37.1987 111.828 37.2063C111.935 36.731 111.544 36.0947 111.467 35.6117C110.718 37.7082 110.119 39.8551 109.673 42.0363C109.497 42.803 109.275 43.7383 108.554 44.1217C108.123 44.3115 107.649 44.3805 107.182 44.321C106.239 44.275 105.104 44.0297 104.79 43.1403C104.817 41.1812 104.5 39.2325 103.854 37.3827C102.953 40.3296 102.438 43.3807 102.321 46.46C102.371 47.1556 102.211 47.8501 101.861 48.4533C101.403 48.927 100.8 49.2346 100.147 49.3276C99.4949 49.4206 98.83 49.2937 98.2577 48.967C97.491 48.4227 97.5447 47.334 97.445 46.414C97.284 44.827 97.1767 43.2323 96.9543 41.6453C96.847 40.9247 96.7243 40.2117 96.5633 39.5063C96.3632 39.5573 96.1681 39.6266 95.9807 39.7133C95.7863 39.8127 95.6037 39.9335 95.4363 40.0737C95.0918 40.3528 94.812 40.7033 94.616 41.101C94.271 41.8677 94.3477 42.849 94.1177 43.6233C93.1977 45.5323 91.9863 47.8323 89.9547 48.9363C88.9418 49.4967 87.8102 49.8084 86.6532 49.8457C85.4962 49.8831 84.3469 49.6449 83.3 49.151C80.4173 47.7097 79.206 41.8217 78.8533 38.6247C78.1403 38.6247 78.4623 41.5457 78.493 41.814C78.8763 44.8117 79.8807 48.0547 82.38 49.7567C83.4756 50.4621 84.7358 50.8705 86.0369 50.9418C87.338 51.013 88.6353 50.7446 89.8013 50.163C90.9562 49.5574 91.9682 48.7119 92.7695 47.6832C93.5708 46.6545 94.1429 45.4663 94.4473 44.1983C94.6773 43.263 94.961 42.3277 95.214 41.4C95.3075 41.1023 95.503 40.8472 95.766 40.6793C95.8273 40.641 96.3717 40.388 96.3717 40.3957C96.4622 42.8861 96.6977 45.3692 97.077 47.8323C97.1494 48.4508 97.359 49.0454 97.6903 49.5727C97.9945 49.9116 98.3803 50.167 98.8111 50.3146C99.2419 50.4622 99.7032 50.4971 100.151 50.416C100.836 50.3846 101.483 50.0941 101.961 49.6033C102.411 48.8939 102.616 48.0562 102.543 47.219C102.629 44.662 103.055 42.1277 103.808 39.6827C104.061 41.3233 103.67 43.516 105.081 44.7273C105.798 45.2571 106.685 45.5053 107.573 45.425C107.988 45.437 108.398 45.3363 108.761 45.1337C109.218 44.7386 109.521 44.1961 109.62 43.6003C110.133 42.067 110.386 40.4263 111.007 38.939C111.007 39.1383 111.007 39.3377 110.961 39.5447C110.915 39.7517 110.961 40.0353 110.908 40.3113C110.854 40.5873 110.908 40.8557 110.854 41.1317L110.9 41.9673C110.9 42.2357 110.9 42.5117 110.9 42.78C110.842 43.944 110.881 45.1107 111.015 46.2683C111.191 47.2002 111.594 48.0744 112.188 48.8137C114.396 51.773 118.482 51.3283 120.43 48.3997C120.464 48.3506 120.516 48.3168 120.574 48.3053C120.633 48.2939 120.694 48.3057 120.744 48.3383C123.742 50.3777 127.521 49.036 129.637 46.4063C129.652 46.3887 129.67 46.3745 129.69 46.3647C129.711 46.355 129.733 46.3499 129.756 46.3499C129.779 46.3499 129.801 46.355 129.822 46.3647C129.842 46.3745 129.861 46.3887 129.875 46.4063C129.943 46.5203 130 46.6411 130.044 46.7667C130.611 48.4993 131.577 49.9407 133.455 50.3623C136.024 50.9297 138.002 49.2123 139.167 47.1423C139.18 47.1164 139.199 47.0945 139.224 47.0792C139.248 47.0639 139.276 47.0558 139.305 47.0558C139.334 47.0558 139.362 47.0639 139.386 47.0792C139.411 47.0945 139.43 47.1164 139.443 47.1423C139.497 47.242 139.612 47.4797 139.788 47.8477C140.105 48.4946 140.564 49.0617 141.131 49.5064C141.698 49.9511 142.358 50.262 143.062 50.416C145.438 50.9297 148.007 49.7643 149.716 48.0163C149.745 47.9882 149.78 47.9669 149.819 47.9538C149.857 47.9407 149.898 47.9362 149.938 47.9405C149.978 47.9449 150.017 47.9581 150.052 47.9792C150.086 48.0002 150.116 48.0286 150.138 48.0623C150.639 48.7993 151.285 49.4267 152.036 49.9064C152.788 50.3861 153.629 50.7082 154.508 50.853C155.631 51.0547 156.784 51.0287 157.897 50.7763C159.054 50.5297 160.127 49.9853 161.009 49.197C162.909 47.4892 164.099 45.131 164.344 42.5883C164.343 42.4906 164.369 42.3944 164.417 42.3095C164.466 42.2247 164.536 42.1542 164.62 42.1053C165.561 41.7316 166.414 41.1678 167.127 40.4493C167.743 39.7926 168.302 39.0847 168.799 38.3333C169.093 37.8982 169.304 37.412 169.42 36.8997C169.447 36.7226 169.438 36.542 169.395 36.3682C169.351 36.1945 169.274 36.0311 169.167 35.8877Z" fill="#96662C"/>
<path d="M89.5483 21.091C89.2898 21.3593 88.9599 21.5482 88.5976 21.6353C88.0867 21.7147 87.5648 21.6886 87.0643 21.5587C84.5768 21.1533 82.0307 21.2972 79.6046 21.9803C79.5194 21.9982 79.4401 22.0378 79.3746 22.0953C79.3275 22.1636 79.2985 22.2428 79.2903 22.3253C78.8226 24.863 78.1403 27.3547 77.5193 29.854C76.9814 31.9469 76.5641 34.0689 76.2696 36.2097C75.9798 38.3819 75.8925 40.5763 76.009 42.7647C76.0856 44.137 76.5916 45.4557 76.607 46.8357C76.6294 47.6386 76.4361 48.4328 76.0473 49.1357C75.6606 49.8278 75.0288 50.3502 74.2763 50.6C73.5948 50.7729 72.8774 50.7409 72.214 50.508C71.4677 50.2957 70.8076 49.853 70.328 49.243C69.5613 48.2693 69.5613 46.943 69.5613 45.7547C69.4935 44.1124 69.5448 42.4675 69.7146 40.8327L69.799 45.4327C69.7533 46.3095 69.908 47.1852 70.2513 47.9933C70.5273 48.53 70.8876 48.5377 71.34 48.944C71.6548 49.1921 72.0177 49.3723 72.4056 49.473C72.8043 49.5727 73.088 49.8563 73.502 49.864C73.7924 49.8224 74.0776 49.7505 74.353 49.6493C74.529 49.6287 74.6987 49.5709 74.8507 49.4797C75.0027 49.3885 75.1336 49.266 75.2346 49.1203C75.4953 48.8137 76.0013 48.4993 76.0013 48.1083C75.9995 47.8155 75.9477 47.525 75.848 47.2497C75.6905 46.5272 75.6185 45.7886 75.6333 45.0493C75.6142 44.948 75.6142 44.844 75.6333 44.7427C75.6333 44.643 75.7253 44.5587 75.7636 44.459C75.5796 44.321 75.595 44.1447 75.5796 43.9683C75.4646 42.5347 75.71 41.0627 75.71 39.629C75.71 38.502 75.664 37.559 75.756 36.708C76.1395 32.7451 76.9099 28.8292 78.056 25.0163C78.4393 23.7667 78.6233 22.3867 78.9453 21.1217C79.0484 20.9337 79.1664 20.7542 79.298 20.585C79.344 20.5313 79.4053 20.585 79.4743 20.585C81.9514 19.8857 84.5561 19.7651 87.0873 20.2323C87.5671 20.3166 88.0611 20.2551 88.5056 20.056C89.0072 19.9147 89.4421 19.5995 89.7323 19.1667C89.9665 18.6561 90.1439 18.1213 90.2613 17.572C90.5099 18.2588 90.542 19.0054 90.3533 19.711C90.1969 20.2278 89.9212 20.7005 89.5483 21.091Z" fill="#96662C"/>
<path d="M154.684 37.191C154.308 39.0766 154.123 40.9953 154.132 42.918C153.772 41.0466 153.772 39.1237 154.132 37.2523L154.539 35.8723C154.585 35.7037 154.631 35.7037 154.677 35.8723C154.76 36.3077 154.762 36.7547 154.684 37.191Z" fill="#96662C"/>
<path d="M159.514 41.078C159.489 41.4102 159.403 41.7349 159.261 42.0363C158.9 41.9724 158.545 41.8723 158.203 41.7373C157.228 41.3711 156.409 40.6804 155.882 39.7814C155.356 38.8824 155.155 37.8297 155.313 36.8C155.441 37.4482 155.671 38.0719 155.995 38.6477C156.356 39.2598 156.849 39.7838 157.438 40.1817C158.027 40.5795 158.697 40.8412 159.399 40.9477C159.415 40.9486 159.431 40.9528 159.446 40.9599C159.46 40.967 159.473 40.9768 159.484 40.9889C159.495 41.0011 159.503 41.0152 159.508 41.0304C159.513 41.0457 159.515 41.0619 159.514 41.078Z" fill="#96662C"/>
<path d="M128.886 39.1C128.778 39.5319 128.556 39.9266 128.242 40.2423C127.998 40.358 127.74 40.443 127.475 40.4953C126.97 40.6673 126.513 40.9563 126.141 41.3387C125.794 41.6533 125.464 41.9859 125.152 42.3353C124.774 42.8689 124.489 43.4625 124.309 44.091C124.188 43.9383 124.111 43.7554 124.087 43.5621C124.063 43.3688 124.092 43.1726 124.171 42.9947C124.723 40.963 126.471 38.939 128.771 38.9927C128.786 38.9853 128.804 38.9826 128.82 38.9852C128.837 38.9877 128.853 38.9953 128.865 39.0069C128.878 39.0185 128.886 39.0336 128.89 39.0503C128.894 39.0669 128.892 39.0842 128.886 39.1Z" fill="#96662C"/>
<path d="M90.0543 41.101C90.033 41.3432 89.9681 41.5796 89.8627 41.7987C89.8627 41.8523 89.8627 41.8907 89.7783 41.8907C89.688 41.8832 89.5998 41.8599 89.5177 41.8217L89.1957 41.699C88.9832 41.6169 88.7758 41.5222 88.5747 41.4153C88.1746 41.2015 87.7993 40.9444 87.4553 40.6487C87.0735 40.3317 86.7471 39.9534 86.4893 39.5293C86.2483 39.105 86.0701 38.6479 85.9603 38.1723C85.9603 38.0573 85.9067 37.9423 85.8837 37.8197L85.8377 37.5437C85.7882 37.257 85.7882 36.964 85.8377 36.6773C85.8683 36.5342 85.899 36.5342 85.9297 36.6773C86.1008 37.6317 86.5274 38.5219 87.164 39.2533C87.3269 39.4355 87.5038 39.6047 87.693 39.7593C88.2827 40.2254 88.9608 40.5671 89.6863 40.7637C89.767 40.7793 89.8447 40.8077 89.9163 40.848C89.9631 40.8702 90.0016 40.9067 90.0264 40.9521C90.0512 40.9975 90.061 41.0497 90.0543 41.101Z" fill="#96662C"/>
<path d="M84.749 39.3837C84.68 40.0813 84.634 40.779 84.634 41.4843C84.603 42.1595 84.6493 42.836 84.772 43.5007C84.3141 41.9998 84.1783 40.4193 84.3733 38.8623C84.4354 38.0497 84.5558 37.2426 84.7337 36.4473C84.8385 35.9254 84.9846 35.4127 85.1707 34.914C85.1628 35.0033 85.1628 35.0931 85.1707 35.1823C85.1707 35.2897 85.1707 35.397 85.1707 35.5043L85.1246 36.1177C85.1246 36.524 85.048 36.938 84.9943 37.3443C84.9023 38.042 84.8333 38.7167 84.749 39.3837Z" fill="#96662C"/>
<path d="M127.966 2.05467C127.884 2.29043 127.818 2.53114 127.767 2.77533C127.437 4.393 127.138 5.75767 126.854 6.86933C126.573 8.1003 125.986 9.24042 125.147 10.1839C124.308 11.1275 123.245 11.8439 122.055 12.2667C120.446 12.9181 118.731 13.2689 116.995 13.3017C116.727 13.3017 116.658 13.1943 116.796 12.9643L117.156 12.3663C117.215 12.2592 117.306 12.1726 117.415 12.1178C117.525 12.0631 117.648 12.0428 117.769 12.0597C118.232 12.0825 118.695 12.0067 119.126 11.8373H117.708C117.697 11.838 117.685 11.8358 117.675 11.831C117.665 11.8262 117.656 11.819 117.649 11.8098C117.642 11.8007 117.638 11.7901 117.636 11.7788C117.634 11.7676 117.635 11.7561 117.639 11.7453C117.685 11.5562 117.774 11.3804 117.9 11.2317C118.424 10.6797 118.977 10.1551 119.556 9.66C119.646 9.57715 119.763 9.52836 119.885 9.522C121.197 9.50532 122.487 9.17963 123.65 8.57133C123.964 8.38733 123.956 8.372 123.65 8.51C122.481 8.94821 121.241 9.16655 119.993 9.154C119.973 9.15474 119.953 9.1499 119.936 9.14003C119.918 9.13017 119.904 9.11566 119.894 9.09814C119.885 9.08062 119.88 9.06078 119.882 9.04085C119.883 9.02093 119.889 9.0017 119.901 8.98533C119.996 8.82974 120.109 8.68568 120.238 8.556C121.311 7.58233 122.109 6.67767 123.098 5.75C123.729 5.15643 124.323 4.52398 124.876 3.85633C123.504 5.267 122.4 6.13333 119.993 8.234C119.95 8.2711 119.912 8.31218 119.878 8.35667L119.763 8.51C119.701 8.58667 119.671 8.579 119.671 8.51L119.632 6.21C119.632 6.01833 119.632 6.01067 119.548 6.21C119.351 6.99382 119.297 7.80659 119.387 8.60967C119.399 8.79389 119.37 8.97851 119.301 9.14975C119.232 9.32099 119.125 9.47445 118.988 9.59867C118.85 9.729 118.367 10.1507 117.524 10.856C117.455 10.9173 117.417 10.8943 117.409 10.8023L117.24 8.73233C117.24 8.602 117.24 8.59433 117.171 8.73233C117.049 9.55065 117.049 10.3827 117.171 11.201C117.181 11.3113 117.148 11.4211 117.079 11.5077L116.144 12.7267C116.131 12.7456 116.114 12.7612 116.094 12.772C116.074 12.7827 116.052 12.7884 116.029 12.7884C116.006 12.7884 115.984 12.7827 115.964 12.772C115.944 12.7612 115.927 12.7456 115.914 12.7267C114.296 9.25367 116.267 5.82667 119.379 4.117C120.208 3.71871 121.063 3.38051 121.94 3.105C122.806 2.81367 123.68 2.49933 124.539 2.17733C126.047 1.61372 127.497 0.907755 128.871 0.0689991C129.055 -0.0460009 129.078 -0.0153342 128.94 0.145666C128.484 0.706216 128.152 1.35679 127.966 2.05467Z" fill="#144611"/>
<path d="M105.901 2.19267C109.85 3.41933 113.238 6.509 113.453 10.8637C113.488 11.3946 113.488 11.9274 113.453 12.4583C113.451 12.4812 113.442 12.5031 113.429 12.5218C113.415 12.5404 113.397 12.5552 113.376 12.5645C113.355 12.5739 113.332 12.5775 113.309 12.575C113.286 12.5725 113.265 12.564 113.246 12.5503L111.475 11.1933C111.46 11.1814 111.448 11.1662 111.44 11.1489C111.432 11.1316 111.428 11.1127 111.429 11.0937C111.454 10.2203 111.281 9.3527 110.922 8.55597C110.564 7.75924 110.029 7.05414 109.359 6.49367C109.359 6.49367 109.321 6.49367 109.313 6.49367C109.313 6.49367 109.313 6.53967 109.313 6.54733C110.069 7.35893 110.57 8.37457 110.754 9.46833C110.754 9.62933 110.854 10.0203 110.977 10.6413C111.007 10.8253 110.946 10.8637 110.793 10.7563C109.827 10.1047 108.807 9.46833 107.726 8.87033C107.647 8.81387 107.581 8.74192 107.531 8.65887C107.48 8.57582 107.448 8.48342 107.435 8.38733C107.303 7.10723 106.829 5.88622 106.062 4.853C106.062 4.853 106.062 4.853 106.062 4.899C106.568 5.89939 106.877 6.9871 106.975 8.10367C106.975 8.15733 106.975 8.165 106.921 8.142C104.549 6.54627 102.025 5.19027 99.3847 4.094C100.99 4.99867 102.063 5.61456 102.605 5.94167C103.888 6.69811 105.337 7.659 106.952 8.82433C106.968 8.8328 106.981 8.84548 106.991 8.86102C107 8.87655 107.005 8.89435 107.005 8.9125C107.005 8.93065 107 8.94845 106.991 8.96398C106.981 8.97952 106.968 8.99221 106.952 9.00067C105.144 9.688 103.158 9.75275 101.309 9.18467C103.091 9.98927 105.111 10.0933 106.967 9.476C107.404 9.338 107.58 9.476 107.948 9.67533C108.715 10.143 109.75 10.7717 111.015 11.569C111.028 11.5753 111.039 11.5851 111.047 11.5973C111.054 11.6095 111.058 11.6236 111.058 11.638C111.058 11.6524 111.054 11.6665 111.047 11.6787C111.039 11.6909 111.028 11.7007 111.015 11.707C110.509 11.8527 110.003 12.0137 109.482 12.19C108.953 12.3056 108.41 12.3392 107.872 12.2897L107.948 12.351C109.056 12.4705 110.177 12.3421 111.23 11.9753C111.255 11.9626 111.282 11.9559 111.31 11.9559C111.338 11.9559 111.366 11.9626 111.391 11.9753C111.897 12.271 112.357 12.6405 112.755 13.0717C112.789 13.1085 112.815 13.1526 112.829 13.2007C112.844 13.2488 112.847 13.2996 112.839 13.3491C112.831 13.3987 112.811 13.4457 112.782 13.4867C112.753 13.5276 112.715 13.5613 112.671 13.5853C111.831 14.0295 110.951 14.3915 110.041 14.6663L107.182 15.0343L106.277 15.111C103.533 14.9154 100.976 13.6455 99.1624 11.5767C97.1307 9.34567 95.904 6.54733 94.6467 4.01733C93.9945 2.73145 93.1198 1.5712 92.063 0.590334C91.994 0.529 92.0094 0.513667 92.063 0.529C93.14 0.820036 94.2406 1.01502 95.352 1.11167C96.2158 1.14744 98.1504 1.25222 101.156 1.426C102.761 1.50307 104.353 1.76024 105.901 2.19267Z" fill="#144611"/>
<path d="M115.822 14.513L116.267 16.0463L117.447 18.768C117.509 18.9137 117.562 18.906 117.608 18.768C117.891 17.9302 118.288 17.1356 118.789 16.4067C119.498 15.4118 120.316 14.499 121.227 13.685C121.358 13.5456 121.53 13.4515 121.718 13.4167C121.914 13.3944 122.097 13.3082 122.239 13.1713C122.36 13.104 122.5 13.0771 122.638 13.0947C122.3 13.478 121.871 13.8613 121.618 14.1603C121.054 14.8326 120.596 15.5876 120.261 16.399L119.494 18.768C119.456 18.8677 119.494 18.906 119.602 18.8907C119.709 18.8753 119.678 18.8523 119.74 18.791C120.963 17.5525 122.5 16.67 124.186 16.238L125.896 16.192V16.2457C125.897 16.2523 125.897 16.2591 125.895 16.2656C125.893 16.2721 125.89 16.2782 125.886 16.2833C125.881 16.2884 125.876 16.2925 125.87 16.2953C125.863 16.298 125.857 16.2994 125.85 16.2993C125.312 16.3682 124.792 16.5372 124.317 16.7977C124.08 16.9166 123.852 17.0523 123.634 17.204C123.151 17.5413 122.868 17.779 122.668 17.9093C122.356 18.1599 122.064 18.4342 121.794 18.7297C121.188 19.384 120.543 20.001 119.862 20.5773C119.833 20.6019 119.811 20.6342 119.799 20.6706C119.786 20.707 119.785 20.7461 119.793 20.7835C119.802 20.8209 119.821 20.8551 119.848 20.8824C119.875 20.9096 119.909 20.9287 119.947 20.9377C120.227 21.0119 120.5 21.1147 120.759 21.2443C121.834 21.7576 122.796 22.4795 123.588 23.368C123.634 23.437 123.588 23.4677 123.481 23.46C122.558 22.8754 121.537 22.46 120.468 22.2333C119.879 22.0368 119.264 21.9308 118.643 21.919C117.779 21.8831 116.915 21.984 116.083 22.218C114.359 22.8213 112.721 23.6432 111.207 24.6637C110.781 24.9526 110.401 25.3041 110.08 25.7063H110.041C109.995 25.7063 109.98 25.7063 110.041 25.645C110.44 24.8944 110.912 24.1856 111.452 23.529C112.119 22.7825 112.937 22.1866 113.852 21.781C113.878 21.7684 113.899 21.7488 113.915 21.7244C113.93 21.7 113.938 21.6718 113.938 21.643C113.938 21.6142 113.93 21.586 113.915 21.5616C113.899 21.5372 113.878 21.5176 113.852 21.505C113.3 21.2367 112.679 21.022 112.127 20.7383C110.75 20.0606 109.299 19.546 107.803 19.205C107.35 19.113 106.891 19.0566 106.43 19.0363C106.346 19.0363 106.331 19.0363 106.369 18.929V18.8753C106.382 18.8549 106.401 18.8379 106.422 18.8259C106.443 18.8139 106.467 18.8072 106.492 18.8063C107.35 18.6592 108.221 18.6078 109.091 18.653C110.463 18.8739 111.819 19.1916 113.146 19.6037C113.208 19.6037 113.215 19.6037 113.146 19.5577C112.924 19.3277 112.556 18.952 112.042 18.446C111.529 17.94 110.9 17.5183 110.348 17.0507C109.832 16.6575 109.265 16.3376 108.661 16.1C108.532 16.041 108.399 15.9898 108.263 15.9467V15.9007C108.271 15.896 108.28 15.8935 108.29 15.8935C108.299 15.8935 108.308 15.896 108.316 15.9007L109.236 16.1C111.207 16.5931 113.057 17.4826 114.672 18.7143C114.856 18.8447 115.025 19.0593 115.193 19.182C115.362 19.3047 115.439 19.2817 115.393 19.0593L114.718 15.8393L114.419 14.973C113.992 13.048 113.72 11.0918 113.606 9.12333C113.514 7.59 113.476 6.01833 113.507 4.47733C113.504 4.04115 113.588 3.60876 113.752 3.20467C114.404 1.67133 117.118 3.542 115.431 4.485C115.155 4.59476 114.907 4.76663 114.708 4.98731C114.508 5.20798 114.362 5.47156 114.281 5.75767C114.157 6.3133 114.11 6.88355 114.143 7.452C114.175 8.34083 114.28 9.22553 114.457 10.097C114.797 11.6021 115.254 13.0785 115.822 14.513Z" fill="#144611"/>
<path d="M168.975 34.8833C168.799 34.5195 168.516 34.2185 168.164 34.021C167.811 33.8235 167.407 33.7392 167.005 33.7793C165.632 33.879 165.701 35.466 164.927 36.2633C164.766 36.4243 164.521 36.6543 164.306 36.4167C164.186 36.2456 164.119 36.0429 164.114 35.834C164.049 34.9113 163.853 34.0026 163.532 33.1353C163.23 32.2898 162.837 31.48 162.359 30.7203C161.753 29.7902 160.928 29.0237 159.956 28.4888C158.984 27.9539 157.895 27.667 156.785 27.6537C155.825 27.5904 154.863 27.7234 153.956 28.0447C152.211 28.8461 150.795 30.2241 149.946 31.947C149.816 32.1847 149.693 32.43 149.586 32.6753C149.24 33.3767 148.982 34.1184 148.819 34.8833C148.674 35.7113 148.513 36.3783 148.421 37.1297C148.265 38.5121 148.245 39.9063 148.359 41.2927C148.409 41.5378 148.4 41.7912 148.333 42.0322C148.267 42.2733 148.144 42.4953 147.976 42.6803C147.313 43.6746 146.375 44.455 145.277 44.9267C144.618 45.126 144.304 43.8073 144.25 43.3933C144.025 41.4104 143.992 39.4104 144.15 37.421C144.265 35.8263 144.373 34.2393 144.587 32.637C144.718 31.7017 144.779 30.521 144.963 29.5703C145.032 29.164 145.086 28.7577 145.116 28.3513C145.12 28.3089 145.137 28.269 145.167 28.2382C145.196 28.2075 145.235 28.1879 145.277 28.1827C146.402 28.0447 147.529 27.8837 148.658 27.6997C149.029 27.6508 149.377 27.4904 149.655 27.2397C149.789 27.1016 149.893 26.9366 149.959 26.7556C150.025 26.5745 150.052 26.3815 150.038 26.1893C150.051 25.8794 150.018 25.5693 149.939 25.2693C149.624 24.2957 148.405 24.2957 147.57 24.3033C147.238 24.3226 146.905 24.3226 146.573 24.3033C146.381 24.3033 145.753 24.3033 145.737 24.0043C145.73 23.9689 145.73 23.9324 145.737 23.897C145.835 23.6461 145.92 23.3902 145.99 23.1303C146.174 22.471 146.366 21.8193 146.535 21.16C146.619 20.8227 146.703 20.4853 146.765 20.148C146.803 19.8246 146.803 19.4978 146.765 19.1743C146.763 18.8102 146.688 18.4502 146.542 18.1163C145.944 16.928 143.721 16.9587 142.663 17.1503C141.981 17.273 141.283 17.4263 141.022 18.0167C140.8 18.5794 140.643 19.1659 140.555 19.7647C140.348 21.022 140.194 22.2947 140.095 23.598C140.09 23.7864 140.017 23.9665 139.888 24.104C139.867 24.1232 139.843 24.1379 139.817 24.1472C139.79 24.1564 139.762 24.16 139.734 24.1577C138.393 24.1117 136.353 24.2343 135.487 25.2387C135.308 25.4592 135.191 25.7241 135.15 26.0053C135.063 26.353 135.082 26.7186 135.203 27.0557C135.406 27.4954 135.748 27.8564 136.176 28.0835C136.604 28.3106 137.094 28.3912 137.572 28.313L139.106 28.106C139.122 28.1036 139.138 28.1049 139.153 28.1097C139.169 28.1146 139.183 28.1228 139.195 28.1339C139.207 28.1449 139.216 28.1585 139.222 28.1736C139.227 28.1887 139.23 28.2049 139.228 28.221L139.144 29.1333C139.083 29.808 139.014 30.498 138.929 31.211C138.715 33.12 138.661 35.0443 138.515 36.938C138.54 37.9977 138.432 39.0563 138.193 40.089C137.579 41.6525 136.809 43.15 135.893 44.5587C135.801 44.7267 135.672 44.8714 135.515 44.9816C135.358 45.0919 135.178 45.1649 134.989 45.195C134.963 45.2002 134.937 45.1961 134.914 45.1834C134.892 45.1707 134.875 45.1503 134.866 45.126C134.766 44.8835 134.724 44.621 134.743 44.3593C134.743 43.9377 134.789 43.7153 134.789 43.7077C134.789 42.7647 134.789 41.8293 134.858 40.894L134.958 39.7057C134.904 38.3103 135.096 36.6927 135.096 35.558C135.096 33.6797 135.096 31.993 133.984 30.452C133.66 29.971 133.282 29.5286 132.857 29.1333C132.349 28.7101 131.752 28.4086 131.109 28.2517C130.804 28.0654 130.466 27.9404 130.113 27.8837C126.747 27.347 122.316 28.7653 121.48 30.498C121.41 30.7293 121.374 30.9694 121.373 31.211C121.334 31.5036 121.334 31.8 121.373 32.0927C121.496 32.7612 121.789 33.3868 122.224 33.9097C122.386 34.1421 122.576 34.3533 122.791 34.5383C123.025 34.7002 123.284 34.8219 123.558 34.8987C124.192 35.0989 124.865 35.1436 125.52 35.029C125.847 34.9744 126.168 34.8897 126.479 34.776C126.666 34.735 126.838 34.6409 126.974 34.505C127.11 34.3691 127.204 34.1971 127.245 34.0093C127.288 33.6783 127.264 33.3423 127.176 33.0203C127.155 32.9302 127.163 32.8356 127.198 32.7501C127.234 32.6647 127.296 32.5929 127.376 32.545C127.655 32.3807 127.965 32.2749 128.287 32.234C128.608 32.1932 128.935 32.2181 129.246 32.3073C129.367 32.3405 129.482 32.3951 129.584 32.4683C129.856 32.7299 130.016 33.0875 130.028 33.465C130.033 33.7024 130.007 33.9395 129.952 34.1703C129.898 34.6533 129.53 34.8603 129.101 34.937C128.593 35.0109 128.08 35.0443 127.567 35.0367C127.118 35.0818 126.672 35.1587 126.233 35.2667C125.112 35.4836 124.047 35.9299 123.105 36.5777C122.799 36.8013 122.519 37.0584 122.27 37.3443C120.489 39.0858 119.142 41.2207 118.337 43.5773C118.292 43.7172 118.235 43.8531 118.168 43.9837C118.002 44.3043 117.804 44.6074 117.578 44.8883C117.43 45.1139 117.212 45.2839 116.957 45.3713C116.879 45.3941 116.797 45.3941 116.719 45.3713C116.67 45.3457 116.626 45.3099 116.592 45.2663C116.558 45.2227 116.533 45.1722 116.52 45.1183L116.405 44.7887C116.363 44.6716 116.332 44.551 116.313 44.4283C116.245 43.8046 116.229 43.1763 116.267 42.55C116.328 41.0167 116.343 39.5293 116.474 38.019C116.604 36.5087 116.796 34.8757 116.995 33.3117C117.084 32.731 117.112 32.1426 117.079 31.556C117.092 31.1862 117 30.8204 116.814 30.5004C116.628 30.1804 116.356 29.9192 116.029 29.7467C114.827 29.1015 113.483 28.7668 112.119 28.773C111.751 28.7479 111.385 28.8362 111.069 29.026C110.793 29.2603 110.536 29.5167 110.302 29.7927C110.238 29.8695 110.157 29.9299 110.065 29.9686C109.973 30.0073 109.873 30.0232 109.773 30.015C109.489 29.9383 109.252 29.5243 109.052 29.325C107.205 27.531 104.56 28.9723 103.026 30.4137C103.01 30.4239 102.992 30.4293 102.973 30.4293C102.954 30.4293 102.935 30.4239 102.919 30.4137C102.906 30.4053 102.895 30.3941 102.887 30.3808C102.879 30.3675 102.874 30.3525 102.873 30.337C102.842 29.6394 102.676 28.9544 102.382 28.3207C102.213 28.0963 101.994 27.9144 101.743 27.7893C101.491 27.6642 101.214 27.5994 100.933 27.6C100.121 27.5487 99.3051 27.6132 98.5107 27.7917C97.353 28.037 96.9237 28.8113 96.7627 29.9153C96.5173 31.6403 96.4943 33.557 96.088 35.3893C95.996 35.811 95.2447 36.4627 94.8613 35.9873C94.7116 35.7948 94.6116 35.5683 94.57 35.328C94.2986 33.5658 93.6099 31.894 92.5613 30.452C92.0262 29.7835 91.396 29.1972 90.6907 28.7117C89.1812 27.7839 87.3773 27.4596 85.6393 27.8035C83.9012 28.1475 82.3567 29.1343 81.3143 30.567C80.7502 31.3408 80.2672 32.1706 79.873 33.0433C79.5719 33.6907 79.3529 34.3732 79.2213 35.075C79.0656 35.7712 78.9453 36.4749 78.861 37.1833C78.6687 39.548 78.8498 41.9283 79.3977 44.2367C80.1183 46.5367 81.759 48.76 84.1127 49.4807C85.7421 50.0173 87.5055 49.9849 89.1141 49.3888C90.7227 48.7927 92.0814 47.6682 92.9677 46.1993C93.4984 45.3615 93.933 44.4665 94.2633 43.5313C94.5127 42.8228 94.7125 42.0979 94.8613 41.3617C94.8613 41.239 94.8613 41.1163 94.9303 40.9937C94.948 40.9366 94.9738 40.8824 95.007 40.8327C95.007 40.8327 95.1297 40.7177 95.1297 40.7023L96.4177 39.8667C96.4389 39.8524 96.4633 39.8434 96.4888 39.8404C96.5142 39.8374 96.54 39.8405 96.564 39.8495C96.588 39.8585 96.6095 39.8731 96.6267 39.8921C96.6439 39.9111 96.6564 39.9339 96.663 39.9587C96.6969 40.154 96.7199 40.3511 96.732 40.549C96.732 40.7713 96.732 40.986 96.801 41.2007C96.8901 41.7439 96.9489 42.2916 96.9773 42.8413C96.9773 43.0407 96.9773 43.2323 96.9773 43.4317C96.9695 43.5363 96.9695 43.6414 96.9773 43.746C96.9773 43.8533 96.9773 43.953 96.9773 44.0603C97.2303 46.253 97.3683 47.357 97.3683 47.3723C97.3916 47.8076 97.544 48.2261 97.8062 48.5743C98.0684 48.9225 98.4285 49.1847 98.8403 49.3273C100.082 49.6417 101.677 49.266 102.145 47.955C102.26 47.4833 102.316 46.9992 102.313 46.5137C102.366 44.8099 102.568 43.1141 102.919 41.446C103.115 40.2846 103.386 39.1372 103.732 38.0113C103.854 37.6817 103.931 37.697 103.962 38.0113L104.008 38.617C104.008 38.7243 104.008 38.8393 104.008 38.9543L104.077 40.158C104.077 40.158 104.077 40.158 104.077 40.2193C104.077 40.6257 104.13 41.032 104.138 41.4383C104.147 41.8363 104.212 42.231 104.33 42.6113C104.434 42.9299 104.602 43.2239 104.823 43.4756C105.045 43.7273 105.315 43.9315 105.618 44.0757C106.384 44.349 107.204 44.4332 108.01 44.321C109.267 44.091 109.497 42.6497 109.742 41.5457C110.137 39.7757 110.649 38.034 111.276 36.3323C111.421 35.926 111.483 35.9413 111.467 36.3323C111.428 36.8694 111.361 37.4042 111.268 37.9347C111.193 38.4861 111.152 39.0418 111.145 39.5983C111.145 39.9893 111.099 40.365 111.099 40.7867L111.053 42.1667C111.053 42.527 111.053 42.9333 111.053 43.2707C111.063 43.8737 111.112 44.4755 111.199 45.0723C111.208 45.2219 111.228 45.3706 111.26 45.517C111.382 46.0722 111.564 46.6122 111.805 47.127C112.119 47.7613 112.576 48.3143 113.14 48.7431C113.703 49.1719 114.358 49.4649 115.053 49.5992C115.748 49.7335 116.465 49.7055 117.148 49.5173C117.83 49.3292 118.46 48.9861 118.988 48.5147C119.477 48.1025 119.912 47.6312 120.284 47.1117C120.318 47.0793 120.363 47.0613 120.411 47.0613C120.458 47.0613 120.503 47.0793 120.537 47.1117C123.121 48.967 126.417 48.1773 128.602 46.0843C128.878 45.8237 129.2 45.494 129.568 45.103C129.585 45.0877 129.605 45.0769 129.627 45.0716C129.649 45.0664 129.671 45.0669 129.693 45.073C129.715 45.0792 129.734 45.0908 129.75 45.1068C129.766 45.1228 129.777 45.1426 129.783 45.1643C130.143 46.621 131.071 48.5223 132.62 49.0513C133.223 49.2785 133.869 49.3722 134.512 49.3259C135.155 49.2795 135.781 49.0943 136.346 48.783C137.447 48.052 138.361 47.0724 139.014 45.9233C139.021 45.9069 139.033 45.8929 139.048 45.8831C139.063 45.8733 139.08 45.8681 139.098 45.8681C139.116 45.8681 139.133 45.8733 139.148 45.8831C139.163 45.8929 139.175 45.9069 139.182 45.9233C139.631 46.8411 140.271 47.6516 141.061 48.3C141.525 48.6954 142.065 48.9929 142.647 49.1747C143.229 49.3565 143.842 49.4188 144.449 49.358C145.46 49.2972 146.448 49.0369 147.357 48.5921C148.267 48.1473 149.079 47.5269 149.747 46.7667C149.759 46.7536 149.773 46.7432 149.789 46.736C149.804 46.7288 149.822 46.7251 149.839 46.7251C149.856 46.7251 149.874 46.7288 149.889 46.736C149.905 46.7432 149.919 46.7536 149.931 46.7667C150.387 47.3746 150.9 47.9369 151.464 48.4457C152.487 49.2074 153.693 49.6837 154.96 49.8257C156.459 50.1096 158.009 49.8715 159.353 49.151C160.742 48.3841 161.889 47.2451 162.665 45.862C162.972 45.3511 163.229 44.812 163.432 44.252C163.67 43.5313 163.938 42.596 164.199 41.4307C164.226 41.338 164.267 41.25 164.321 41.17C164.358 41.1194 164.405 41.0775 164.459 41.0473C165.83 40.4379 167.007 39.4648 167.863 38.2337C168.124 37.858 168.469 37.306 168.906 36.5623C169.051 36.3083 169.132 36.0233 169.144 35.7312C169.156 35.4391 169.098 35.1484 168.975 34.8833ZM168.208 36.0333C167.825 37.0103 167.231 37.891 166.469 38.6131C165.707 39.3351 164.796 39.8809 163.8 40.2117C163.733 40.23 163.673 40.2672 163.627 40.3189C163.58 40.3706 163.55 40.4345 163.539 40.503C163.303 42.2547 162.73 43.9442 161.853 45.4787C161.17 46.6484 160.195 47.6207 159.024 48.3C157.638 49.0237 156.041 49.2329 154.516 48.8903C154.164 48.8089 153.818 48.7038 153.481 48.576C151.779 47.9243 150.989 46.8357 150.207 45.2947C150.19 45.2661 150.166 45.2424 150.137 45.2259C150.108 45.2095 150.075 45.2008 150.042 45.2008C150.009 45.2008 149.976 45.2095 149.947 45.2259C149.918 45.2424 149.894 45.2661 149.877 45.2947C149.289 46.1388 148.54 46.8585 147.673 47.4124C146.806 47.9663 145.838 48.3435 144.825 48.5223C144.425 48.557 144.022 48.557 143.621 48.5223C141.176 48.3613 140.033 45.9233 139.543 43.7997C139.474 43.516 139.382 43.5083 139.259 43.7997C138.618 45.187 137.739 46.4508 136.66 47.5333C136.291 47.8851 135.846 48.1467 135.36 48.2975C134.873 48.4483 134.358 48.4843 133.855 48.4026C133.352 48.3209 132.875 48.1237 132.461 47.8266C132.047 47.5294 131.708 47.1404 131.47 46.69C130.871 45.4946 130.519 44.1909 130.435 42.8567C130.429 42.7792 130.408 42.7037 130.373 42.6343C130.362 42.6169 130.347 42.6026 130.329 42.5926C130.311 42.5827 130.29 42.5775 130.27 42.5775C130.249 42.5775 130.229 42.5827 130.211 42.5926C130.193 42.6026 130.177 42.6169 130.166 42.6343C129.671 43.4497 129.104 44.2194 128.472 44.9343C126.517 47.1653 122.76 48.5223 120.606 45.6473C120.585 45.6188 120.558 45.5956 120.527 45.5796C120.496 45.5636 120.461 45.5553 120.426 45.5553C120.391 45.5553 120.356 45.5636 120.325 45.5796C120.293 45.5956 120.266 45.6188 120.246 45.6473C119.096 47.5333 117.8 49.0667 115.5 48.7677C112.832 48.3843 112.012 45.9923 111.958 43.631C111.939 41.8989 112.036 40.1674 112.249 38.4483C112.444 36.8332 112.638 35.2079 112.832 33.5723C112.874 33.2671 112.874 32.9576 112.832 32.6523C112.748 32.131 112.571 32.1003 112.295 32.545C111.822 33.3008 111.404 34.09 111.046 34.9063C110.456 36.244 109.964 37.6225 109.574 39.031C109.252 40.112 108.976 41.2007 108.738 42.3123C108.6 42.9487 108.454 43.378 107.795 43.4623C107.341 43.568 106.865 43.5329 106.431 43.3617C105.996 43.1905 105.625 42.8914 105.365 42.504C105.159 42.0187 105.049 41.4979 105.043 40.9707C104.929 39.7168 104.896 38.4568 104.943 37.1987C105.012 35.2973 105.05 34.0707 105.058 33.534C105.058 33.2529 104.966 33.1456 104.782 33.212C103.956 34.7494 103.327 36.3852 102.911 38.0803C102.262 40.4512 101.811 42.872 101.562 45.3177C101.562 45.632 101.562 45.977 101.562 46.3527C101.562 47.196 101.6 47.886 100.795 48.2847C100.468 48.4635 100.099 48.5508 99.7268 48.5374C99.3544 48.5239 98.9925 48.4101 98.6793 48.208C98.319 47.9933 98.2807 47.2957 98.25 46.943C97.928 43.493 97.56 41.0243 97.5523 37.973C97.5523 37.7507 97.4757 37.72 97.3223 37.8963C96.2122 38.3268 95.2323 39.0373 94.478 39.9587C94.4095 39.9871 94.3498 40.0334 94.3053 40.0927C94.2608 40.152 94.2331 40.2223 94.225 40.296C93.328 43.654 91.7947 47.6943 87.8387 48.4303C82.3953 49.45 80.218 45.3637 79.8653 40.8173C79.6507 37.7507 79.8653 34.7837 81.46 32.1387C81.992 31.2265 82.7168 30.4416 83.5837 29.8387C84.234 29.3625 84.9752 29.025 85.7614 28.847C86.5475 28.669 87.3618 28.6543 88.1538 28.8038C88.9459 28.9533 89.6988 29.2638 90.3659 29.7161C91.0331 30.1684 91.6003 30.7529 92.0323 31.4333C92.8015 32.5988 93.3427 33.8995 93.627 35.2667L94.2173 37.7277C94.219 37.7475 94.2256 37.7667 94.2363 37.7835C94.2471 37.8003 94.2618 37.8142 94.2792 37.824C94.2966 37.8338 94.3161 37.8393 94.336 37.8399C94.356 37.8404 94.3758 37.8361 94.3937 37.8273C95.5191 37.279 96.4364 36.3805 97.008 35.2667C97.1441 34.8383 97.2038 34.3894 97.1843 33.9403C97.1843 33.1737 97.1843 32.7137 97.1843 32.6217C97.2577 31.531 97.4244 30.4485 97.6827 29.3863C97.813 28.819 98.227 28.6197 98.7943 28.5277C99.9213 28.336 100.565 28.2363 100.734 28.221C102.221 28.1213 102.045 29.5243 101.769 30.521C101.653 30.9444 101.563 31.3745 101.501 31.809C101.251 33.6203 101.131 35.447 101.14 37.2753L102.206 34.0093C102.591 33.1101 103.034 32.2368 103.532 31.395C104.115 30.4137 104.506 29.7313 105.602 29.693C106.116 29.6701 106.627 29.7862 107.08 30.0291C107.533 30.272 107.913 30.6326 108.178 31.073C108.306 31.4291 108.363 31.8067 108.347 32.1847C108.347 33.028 108.347 33.902 108.309 34.8067C108.309 35.3203 108.194 35.8187 108.186 36.34C108.907 34.4728 109.876 32.7114 111.069 31.1037C111.413 30.6624 111.847 30.2992 112.341 30.038C112.871 29.7798 113.46 29.6691 114.047 29.7177C114.634 29.7662 115.197 29.9723 115.676 30.314C115.928 30.5088 116.122 30.7693 116.235 31.0668C116.349 31.3644 116.378 31.6875 116.32 32.0007C116.106 33.81 115.888 35.6244 115.669 37.444C115.569 38.7167 115.469 39.9893 115.377 41.2773C115.29 42.4489 115.357 43.6269 115.577 44.781C115.692 45.3867 116.06 46.506 116.88 46.391C118.513 46.161 119.479 42.3583 120.276 40.9707C121.157 39.4032 122.42 38.0844 123.949 37.1373C124.447 37.3443 124.999 37.5743 125.183 37.6663C125.703 37.8029 126.24 37.8623 126.778 37.8427C126.954 37.8427 129.254 36.4243 129.254 36.4243C129.239 36.2112 129.176 36.0041 129.07 35.8187C129.458 35.8398 129.845 35.8833 130.228 35.949C130.26 35.9866 130.304 36.0123 130.353 36.022C130.401 36.0317 130.452 36.0249 130.496 36.0027C130.526 35.9783 130.551 35.9481 130.57 35.9138C130.588 35.8796 130.6 35.842 130.603 35.8033C130.849 34.4693 131.37 31.97 129.499 31.464C128.61 31.2187 127.253 31.2877 126.624 32.062C126.164 32.637 126.287 33.1277 126.341 33.8177C126.354 33.9501 126.322 34.0831 126.25 34.1947C126.177 34.3063 126.069 34.3897 125.942 34.431C125.466 34.6048 124.948 34.6243 124.461 34.4867C123.974 34.3491 123.542 34.0613 123.228 33.6643C122.676 33.051 121.695 31.51 122.415 30.7663C122.645 30.5287 131.355 29.8693 130.849 29.3403C130.795 29.2867 130.895 29.1947 131.017 29.072C131.865 29.3464 132.619 29.8496 133.198 30.5261C133.777 31.2026 134.158 32.026 134.299 32.9053C134.498 33.9999 134.553 35.1162 134.46 36.225C134.186 39.0016 134.081 41.7923 134.145 44.5817C134.133 44.8892 134.186 45.1959 134.301 45.4814C134.416 45.767 134.59 46.0247 134.812 46.2377C135.165 46.598 135.487 46.575 135.771 46.161C136.511 45.1179 137.177 44.024 137.764 42.8873C138.055 42.3047 138.331 41.7143 138.6 41.1163C138.808 40.6936 138.99 40.2583 139.144 39.813C139.238 39.3076 139.271 38.7929 139.244 38.2797L139.29 37.0913C139.43 33.8227 139.752 30.5643 140.256 27.3317C140.258 27.3083 140.255 27.2847 140.248 27.2624C140.24 27.2401 140.228 27.2197 140.212 27.2024C140.196 27.185 140.177 27.1712 140.155 27.1618C140.134 27.1524 140.111 27.1476 140.087 27.1477C139.341 27.1477 138.39 27.2167 137.235 27.3547C137.085 27.3861 136.929 27.3842 136.78 27.3491C136.63 27.3141 136.49 27.2466 136.37 27.1516C136.249 27.0566 136.151 26.9363 136.082 26.7992C136.013 26.6621 135.975 26.5115 135.97 26.358C135.93 26.1865 135.93 26.0081 135.97 25.8367C136.392 24.725 139.474 24.7787 140.493 24.8247C140.515 24.825 140.537 24.8174 140.554 24.8033C140.57 24.7893 140.582 24.7697 140.585 24.748C140.831 23.0307 141.168 20.9607 141.597 18.5227C141.666 18.333 141.79 18.1679 141.952 18.0479C142.114 17.928 142.308 17.8584 142.51 17.848C143.408 17.7375 144.317 17.7375 145.216 17.848C146.458 18.0473 146.128 19.458 145.86 20.332C145.403 21.7593 145.047 23.217 144.794 24.6943C144.791 24.7187 144.793 24.7435 144.8 24.7671C144.807 24.7907 144.819 24.8126 144.835 24.8313C144.85 24.8501 144.87 24.8654 144.892 24.8761C144.914 24.8868 144.938 24.8928 144.963 24.8937C146.244 24.9105 147.524 24.995 148.796 25.1467C149.264 25.2157 149.425 25.4993 149.279 26.0207C149.229 26.2402 149.123 26.4433 148.973 26.611C148.668 26.7971 148.318 26.8977 147.961 26.9023L144.687 27.2857C144.584 27.2876 144.486 27.3295 144.413 27.4024C144.34 27.4753 144.298 27.5736 144.296 27.6767C144.143 29.026 143.954 30.5593 143.729 32.2767C143.55 33.672 143.419 35.6781 143.338 38.295C143.338 39.6903 143.338 41.0857 143.445 42.4657C143.474 43.0656 143.561 43.6614 143.706 44.2443C143.742 44.5032 143.834 44.7513 143.974 44.9721C144.114 45.1929 144.3 45.3813 144.518 45.5247C144.817 45.6533 145.145 45.6992 145.467 45.6574C145.79 45.6155 146.095 45.4876 146.351 45.287C147.127 44.6794 147.836 43.9906 148.467 43.2323C148.658 42.9947 148.842 42.7493 149.026 42.4657C149.21 42.182 149.08 41.975 149.026 41.7373C148.973 41.4997 148.973 41.1777 148.957 40.9017C148.957 40.3497 148.919 39.79 148.957 39.238C148.996 38.686 149.011 38.065 149.08 37.4823C149.356 34.6917 150.422 31.7247 152.584 29.8157C153.259 29.2657 154.043 28.8635 154.884 28.635C156.083 28.2828 157.361 28.3088 158.545 28.7093C159.729 29.1099 160.761 29.8657 161.5 30.8737C162.346 32.0607 162.95 33.4021 163.279 34.822C163.526 35.8264 163.665 36.8546 163.693 37.8887C163.693 37.9071 163.698 37.9251 163.706 37.9414C163.715 37.9578 163.727 37.972 163.742 37.983C163.756 37.9941 163.773 38.0017 163.791 38.0052C163.81 38.0088 163.828 38.0083 163.846 38.0037C165.034 37.7277 166.092 35.7957 166.698 34.7683C166.749 34.6458 166.845 34.547 166.965 34.4916C167.086 34.4362 167.223 34.4282 167.35 34.4693C168.024 34.776 168.576 35.19 168.193 36.0333H168.208Z" fill="#FEFEFD"/>
<path d="M90.2767 18.1623C90.2207 18.6252 90.0637 19.0702 89.8167 19.4657C89.5391 19.9516 89.0867 20.3135 88.5517 20.4777C88.1597 20.5518 87.756 20.5361 87.371 20.4317C85.0849 19.9958 82.7319 20.0559 80.471 20.608L79.2597 20.8917C79.2192 20.9111 79.1841 20.9401 79.1574 20.9762C79.1307 21.0123 79.1131 21.0543 79.1063 21.0987C79.0965 21.3284 79.0657 21.5568 79.0143 21.781C78.5467 23.782 78.0713 25.668 77.6037 27.4543C76.8065 30.4771 76.2174 33.551 75.8403 36.6543C75.7363 37.6373 75.6851 38.6252 75.687 39.6137C75.687 40.6103 75.687 41.5993 75.687 42.596C75.6509 43.6343 75.7908 44.6712 76.101 45.6627C76.2569 46.1979 76.2958 46.7604 76.2151 47.3121C76.1344 47.8637 75.936 48.3915 75.6333 48.8597C75.4542 49.1386 75.2169 49.3754 74.9377 49.5541C74.6585 49.7327 74.344 49.8489 74.0157 49.8947C73.3398 50.0107 72.645 49.9391 72.007 49.6877C71.7727 49.6063 71.5508 49.4928 71.3477 49.3503C71.1538 49.1871 70.9742 49.0075 70.811 48.8137C70.3449 48.3278 70.0213 47.7231 69.8757 47.0657C69.8677 47.0174 69.8677 46.9682 69.8757 46.92C69.8339 46.6663 69.8083 46.4103 69.799 46.1533C69.7428 44.39 69.7121 42.6011 69.707 40.7867C69.707 40.503 69.707 40.2117 69.707 39.8973C69.707 39.583 69.707 39.215 69.7683 39.0157C69.96 37.582 69.9753 36.1867 70.1593 34.776C70.4865 32.2767 70.788 30.3012 71.064 28.8497C71.271 27.7687 71.616 26.3043 72.099 24.4797C72.145 24.2957 72.1833 24.0887 72.2217 23.8357C72.26 23.5827 72.283 23.3987 72.306 23.1993L72.5667 22.2333C72.5711 22.2095 72.5696 22.185 72.5622 22.1619C72.5548 22.1388 72.5417 22.118 72.5242 22.1012C72.5067 22.0845 72.4853 22.0724 72.4619 22.066C72.4385 22.0596 72.4139 22.0592 72.3903 22.0647C70.4236 22.6587 68.371 22.9179 66.3183 22.8313C65.3752 22.7868 64.4641 22.4747 63.6917 21.9317C62.9192 21.3887 62.3172 20.6371 61.956 19.7647C61.6723 18.5457 61.6187 17.5567 62.7227 16.698C63.1123 16.6296 63.5084 16.6065 63.9033 16.629C65.5751 16.8686 67.2709 16.8892 68.948 16.6903C72.0147 16.3479 75.1759 15.9543 78.4317 15.5097C81.2261 15.1316 84.0458 14.9726 86.865 15.0343C87.536 15.0502 88.2016 15.1586 88.843 15.3563C90.0901 15.7039 90.568 16.6392 90.2767 18.1623Z" fill="#FEFEFD"/>
<path d="M133.003 20.0177C132.93 18.8039 132.565 17.6256 131.939 16.5832C131.313 15.5407 130.444 14.6648 129.407 14.03C127.613 12.8929 125.511 12.3361 123.389 12.4353C122.518 12.4789 121.658 12.6493 120.836 12.9413C120.006 13.2259 119.192 13.5561 118.398 13.9303L115.822 14.513L116.267 16.0463L117.447 18.768C117.509 18.9137 117.562 18.906 117.608 18.768C117.894 17.9316 118.291 17.1373 118.789 16.4067C119.498 15.4118 120.316 14.499 121.227 13.685C121.358 13.5456 121.53 13.4515 121.718 13.4167C121.914 13.3962 122.098 13.3097 122.239 13.1713C122.36 13.104 122.5 13.0771 122.638 13.0947C122.3 13.478 121.871 13.8613 121.618 14.1603C121.056 14.8345 120.599 15.5891 120.261 16.399L119.494 18.768C119.494 18.8677 119.494 18.906 119.602 18.8907C119.709 18.8753 119.678 18.8523 119.74 18.791C120.961 17.5519 122.499 16.6715 124.186 16.2457L125.896 16.192V16.2457C125.897 16.2523 125.897 16.2591 125.895 16.2656C125.893 16.2721 125.89 16.2782 125.886 16.2833C125.881 16.2884 125.876 16.2925 125.87 16.2953C125.863 16.298 125.857 16.2994 125.85 16.2993C125.311 16.3684 124.791 16.5402 124.317 16.8053C124.078 16.9187 123.85 17.0521 123.634 17.204C123.151 17.5413 122.868 17.779 122.668 17.9093C122.356 18.1599 122.064 18.4342 121.794 18.7297C121.188 19.384 120.543 20.001 119.862 20.5773C119.835 20.6031 119.815 20.6356 119.805 20.6714C119.794 20.7072 119.793 20.7452 119.801 20.7816C119.81 20.818 119.828 20.8516 119.853 20.8789C119.879 20.9063 119.911 20.9266 119.947 20.9377C120.229 21.0131 120.504 21.1158 120.767 21.2443C121.838 21.7597 122.797 22.4814 123.588 23.368C123.634 23.437 123.588 23.4677 123.481 23.46C122.56 22.8762 121.542 22.4609 120.476 22.2333C119.884 22.0372 119.266 21.9312 118.643 21.919C117.782 21.883 116.92 21.9839 116.09 22.218C114.366 22.8181 112.727 23.6403 111.214 24.6637C110.784 24.9503 110.402 25.302 110.08 25.7063H110.041C110.041 25.7063 109.98 25.7063 110.041 25.645C110.437 24.8954 110.91 24.1888 111.452 23.5367C112.116 22.7856 112.935 22.1868 113.852 21.781C113.878 21.7684 113.899 21.7488 113.915 21.7244C113.93 21.7 113.938 21.6718 113.938 21.643C113.938 21.6142 113.93 21.586 113.915 21.5616C113.899 21.5372 113.878 21.5176 113.852 21.505C113.3 21.2367 112.686 21.022 112.127 20.7383C110.75 20.0606 109.299 19.546 107.803 19.205C107.35 19.1168 106.891 19.0604 106.43 19.0363C106.346 19.0363 106.331 19.0363 106.369 18.929C106.37 18.9111 106.37 18.8932 106.369 18.8753C106.382 18.8549 106.401 18.8379 106.422 18.8259C106.443 18.8139 106.467 18.8072 106.492 18.8063C107.349 18.6569 108.222 18.608 109.091 18.6607C110.464 18.8741 111.82 19.1893 113.146 19.6037C113.208 19.6037 113.215 19.6037 113.146 19.5577C112.924 19.3277 112.556 18.952 112.042 18.446C111.529 17.94 110.9 17.5183 110.348 17.0507C109.832 16.6575 109.265 16.3376 108.661 16.1C108.532 16.041 108.399 15.9898 108.263 15.9467V15.9007C108.271 15.896 108.28 15.8935 108.29 15.8935C108.299 15.8935 108.308 15.896 108.316 15.9007L109.236 16.1C111.208 16.5979 113.059 17.487 114.68 18.7143C114.856 18.8447 115.025 19.0593 115.193 19.182C115.362 19.3047 115.439 19.2817 115.393 19.0593L114.718 15.8393L114.419 14.973C113.598 14.836 112.767 14.7693 111.935 14.7737L109.934 14.858L107.074 15.226L106.17 15.3027C104.822 15.9441 103.653 16.9079 102.766 18.1087C101.929 19.3121 101.551 20.7753 101.7 22.2333C101.803 22.973 102.064 23.6818 102.467 24.311C103.024 24.92 103.733 25.3698 104.521 25.6143C105.648 26.036 106.76 26.4807 107.879 26.9483C108.535 27.2601 109.11 27.7193 109.558 28.29C109.597 28.3372 109.644 28.3758 109.698 28.4036C109.752 28.4313 109.811 28.4475 109.872 28.4511C109.932 28.4547 109.993 28.4457 110.05 28.4245C110.107 28.4034 110.159 28.3706 110.202 28.3283L111.076 27.439C111.642 26.9134 112.353 26.5707 113.116 26.4558C113.879 26.3409 114.659 26.4591 115.354 26.795C116.688 27.3547 117.785 27.968 119.356 27.7993C121.227 27.6153 123.006 26.6723 124.685 25.9057C125.587 25.541 126.542 25.3235 127.514 25.2617C128.855 25.2617 129.699 25.2233 130.036 25.2617C130.455 25.2857 130.873 25.2177 131.263 25.0623C132.689 24.242 133.133 21.505 133.003 20.0177ZM105.763 20.0177C105.629 20.2347 105.483 20.4446 105.326 20.6463C104.957 21.1682 104.713 21.7683 104.613 22.3999C104.513 23.0315 104.561 23.6777 104.751 24.288C104.828 24.5717 104.905 24.9167 104.981 25.3153C104.987 25.3408 104.986 25.3673 104.978 25.3921C104.97 25.4169 104.955 25.4391 104.935 25.4563C104.916 25.4736 104.892 25.4852 104.866 25.4901C104.841 25.495 104.814 25.4929 104.79 25.484C104.334 25.3424 103.923 25.0827 103.6 24.7313C103.277 24.3799 103.053 23.9492 102.95 23.483C102.808 22.956 102.804 22.4014 102.938 21.8724C103.072 21.3434 103.34 20.8578 103.716 20.4623C103.938 20.1794 104.234 19.9632 104.571 19.8374C104.907 19.7116 105.272 19.6812 105.625 19.7493C105.652 19.7543 105.677 19.765 105.698 19.7807C105.72 19.7963 105.738 19.8165 105.751 19.8399C105.765 19.8633 105.772 19.8892 105.774 19.916C105.777 19.9427 105.773 19.9696 105.763 19.9947V20.0177Z" fill="url(#paint0_radial_102_153)"/>
<path d="M130.151 37.9883C128.87 37.8123 127.566 38.0542 126.433 38.6783C124.761 39.6903 123.059 41.8447 123.312 43.953C123.565 46.0613 125.727 44.758 126.456 44.0143C127.605 42.8386 128.565 41.491 129.3 40.02C129.699 39.2533 130.005 38.617 130.22 38.1493C130.227 38.1344 130.232 38.1181 130.232 38.1014C130.232 38.0848 130.229 38.0682 130.223 38.0529C130.216 38.0376 130.206 38.0239 130.194 38.0127C130.182 38.0016 130.167 37.9933 130.151 37.9883ZM126.08 43.1097C125.862 43.3696 125.603 43.5923 125.313 43.769C125.012 43.9386 124.677 44.0382 124.332 44.0603C124.512 43.4318 124.797 42.8383 125.175 42.3047C125.487 41.9553 125.817 41.6226 126.164 41.308C126.536 40.9256 126.993 40.6366 127.498 40.4647C127.763 40.4123 128.021 40.3273 128.265 40.2117C127.767 41.4613 126.9 42.1667 126.08 43.1097Z" fill="#FEFEFD"/>
<path d="M167.342 34.5C167.216 34.4589 167.078 34.4669 166.958 34.5223C166.837 34.5777 166.742 34.6764 166.69 34.799C166.085 35.8263 165.027 37.7583 163.838 38.0343C163.82 38.0389 163.802 38.0395 163.784 38.0359C163.766 38.0323 163.749 38.0248 163.734 38.0137C163.719 38.0027 163.707 37.9884 163.699 37.9721C163.69 37.9558 163.686 37.9377 163.685 37.9193C163.657 36.8852 163.518 35.8571 163.271 34.8527C162.948 33.4227 162.347 32.0705 161.5 30.8737C160.756 29.871 159.72 29.1219 158.535 28.7282C157.35 28.3345 156.072 28.3154 154.876 28.6733C154.035 28.9018 153.252 29.304 152.576 29.854C150.414 31.763 149.348 34.73 149.072 37.5207C148.911 39.0626 148.911 40.6171 149.072 42.159C149.08 42.2175 149.08 42.2768 149.072 42.3353C149.05 42.4229 149.008 42.5042 148.95 42.573C148.195 43.6094 147.306 44.5402 146.305 45.3407C145.906 45.6473 144.879 45.9463 144.388 45.5323C144.147 45.3522 143.955 45.1151 143.828 44.8423C143.572 44.1011 143.428 43.326 143.399 42.5423C143.299 41.1623 143.269 39.767 143.292 38.3717C143.379 35.7548 143.509 33.7487 143.683 32.3533C143.908 30.6104 144.097 29.0771 144.25 27.7533C144.252 27.6502 144.294 27.5519 144.367 27.479C144.44 27.4061 144.538 27.3643 144.641 27.3623L147.915 26.979C148.272 26.9744 148.622 26.8737 148.927 26.6877C149.082 26.5113 149.188 26.2971 149.233 26.0667C149.379 25.5453 149.233 25.3 148.75 25.1927C147.478 25.041 146.198 24.9565 144.917 24.9397C144.892 24.9388 144.868 24.9328 144.846 24.9221C144.824 24.9114 144.804 24.8961 144.789 24.8773C144.773 24.8586 144.761 24.8367 144.754 24.8131C144.747 24.7895 144.745 24.7647 144.748 24.7403C145.001 23.263 145.357 21.8053 145.814 20.378C146.082 19.504 146.412 18.078 145.17 17.894C144.271 17.7835 143.362 17.7835 142.464 17.894C142.262 17.9044 142.068 17.974 141.906 18.0939C141.744 18.2139 141.62 18.379 141.551 18.5687C141.122 21.0067 140.785 23.0767 140.539 24.794C140.536 24.8157 140.524 24.8353 140.507 24.8493C140.491 24.8634 140.469 24.871 140.447 24.8707C139.428 24.8247 136.346 24.771 135.924 25.8827C135.884 26.0541 135.884 26.2325 135.924 26.404C135.929 26.5575 135.967 26.7081 136.036 26.8452C136.105 26.9823 136.203 27.1026 136.324 27.1976C136.444 27.2926 136.584 27.3601 136.734 27.3952C136.883 27.4302 137.039 27.4321 137.189 27.4007C138.344 27.278 139.295 27.209 140.041 27.1937C140.064 27.1936 140.088 27.1984 140.109 27.2078C140.131 27.2172 140.15 27.231 140.166 27.2484C140.182 27.2657 140.194 27.2861 140.201 27.3084C140.209 27.3307 140.212 27.3543 140.21 27.3777C139.715 30.5956 139.401 33.8385 139.267 37.0913L139.175 39.6137C139.169 39.7199 139.143 39.824 139.098 39.9203C138.515 41.2237 138.063 42.2203 137.741 42.849C137.154 43.9856 136.488 45.0796 135.748 46.1227C135.464 46.5367 135.142 46.5597 134.789 46.1993C134.567 45.9864 134.393 45.7286 134.278 45.4431C134.163 45.1576 134.11 44.8509 134.122 44.5433C134.058 41.754 134.163 38.9633 134.437 36.1867C134.53 35.0779 134.475 33.9616 134.276 32.867C134.118 31.8697 133.658 30.9448 132.957 30.218C132.256 29.4911 131.349 28.9973 130.358 28.8037C128.082 28.4259 125.745 28.8113 123.711 29.9C123.237 30.0853 122.794 30.344 122.4 30.6667C121.687 31.4333 122.661 32.9667 123.213 33.5647C123.527 33.9616 123.958 34.2494 124.446 34.387C124.933 34.5247 125.451 34.5052 125.927 34.3313C126.053 34.29 126.162 34.2066 126.234 34.095C126.307 33.9834 126.339 33.8504 126.325 33.718C126.272 33.028 126.149 32.5373 126.609 31.9623C127.238 31.1957 128.595 31.119 129.484 31.3643C131.339 31.878 130.833 34.3697 130.588 35.7037C130.584 35.7424 130.573 35.78 130.554 35.8142C130.536 35.8484 130.511 35.8786 130.481 35.903C130.436 35.9253 130.386 35.9321 130.337 35.9223C130.289 35.9126 130.245 35.8869 130.212 35.8493C128.445 35.5202 126.62 35.7424 124.984 36.4857C122.976 37.4167 121.321 38.9673 120.261 40.9093C119.494 42.297 118.498 46.0997 116.865 46.3297C116.044 46.4447 115.676 45.3253 115.561 44.7197C115.342 43.5655 115.275 42.3876 115.362 41.216C115.454 39.9433 115.554 38.6707 115.653 37.3827C115.878 35.5631 116.095 33.7487 116.305 31.9393C116.363 31.6262 116.334 31.303 116.22 31.0055C116.106 30.7079 115.913 30.4475 115.661 30.2527C115.181 29.9109 114.618 29.7049 114.031 29.6563C113.444 29.6078 112.855 29.7184 112.326 29.9767C111.831 30.2379 111.397 30.6011 111.053 31.0423C109.861 32.6501 108.891 34.4114 108.171 36.2787C108.171 35.7573 108.278 35.259 108.293 34.7453C108.293 33.8407 108.332 32.9667 108.332 32.1233C108.348 31.7454 108.291 31.3678 108.163 31.0117C107.888 30.57 107.498 30.2117 107.035 29.9753C106.571 29.7388 106.052 29.6333 105.533 29.67C104.437 29.67 104.046 30.3907 103.463 31.372C102.965 32.2138 102.522 33.0871 102.137 33.9863L101.071 37.2523C101.062 35.424 101.182 33.5973 101.432 31.786C101.494 31.3515 101.584 30.9214 101.7 30.498C101.976 29.509 102.152 28.106 100.665 28.198C100.496 28.198 99.8523 28.313 98.7253 28.5047C98.158 28.6043 97.744 28.796 97.6137 29.3633C97.3554 30.4255 97.1886 31.508 97.1153 32.5987C97.1437 33.3369 97.1027 34.0761 96.9927 34.8067C96.6965 35.8157 96.0563 36.6891 95.1833 37.2753C95.1067 37.329 94.202 37.8273 94.202 37.8273C94.0863 35.854 93.5808 33.9232 92.7147 32.1463C92.2779 31.261 91.6574 30.479 90.8946 29.8524C90.1318 29.2258 89.2442 28.7689 88.291 28.5123C85.7993 27.968 83.1697 29.279 81.6517 31.3567C80.2267 33.49 79.4663 35.9979 79.4667 38.5633C79.2922 40.7782 79.6798 43.0012 80.5937 45.0263C81.0563 46.0328 81.7515 46.9149 82.6219 47.6C83.4923 48.2851 84.513 48.7537 85.6 48.967C86.642 49.0792 87.6959 48.9471 88.678 48.5811C89.6601 48.2152 90.5435 47.6254 91.258 46.8587C92.677 45.3023 93.6098 43.3649 93.9413 41.285C93.9801 40.9982 94.0548 40.7175 94.1637 40.4493C94.3992 40.026 94.7573 39.6839 95.191 39.468C95.6127 39.2227 95.9577 38.9543 96.387 38.7013C96.6387 38.5464 96.8596 38.3462 97.0387 38.111C97.146 37.973 97.4603 37.5513 97.468 37.9577C97.468 41.0243 97.8437 43.4777 98.1656 46.9277C98.1656 47.2803 98.2346 47.978 98.595 48.1927C98.9081 48.3947 99.27 48.5085 99.6424 48.522C100.015 48.5355 100.384 48.4482 100.711 48.2693C101.539 47.8553 101.478 47.1807 101.478 46.3373C101.478 45.9617 101.478 45.6167 101.478 45.3023C101.726 42.8567 102.178 40.4359 102.827 38.065C103.263 36.3587 103.915 34.715 104.767 33.1737C104.951 33.1021 105.043 33.2094 105.043 33.4957C105.043 34.0323 104.997 35.259 104.928 37.1603C104.88 38.4185 104.913 39.6784 105.027 40.9323C105.034 41.4595 105.143 41.9804 105.349 42.4657C105.608 42.8702 105.986 43.1838 106.431 43.3625C106.877 43.5413 107.367 43.5762 107.833 43.4623C108.493 43.378 108.638 42.9487 108.776 42.3123C109.014 41.2007 109.29 40.112 109.612 39.031C110.003 37.6225 110.495 36.244 111.084 34.9063C111.443 34.09 111.86 33.3008 112.334 32.545C112.61 32.1003 112.786 32.131 112.87 32.6523C112.912 32.9576 112.912 33.2671 112.87 33.5723C112.671 35.2079 112.477 36.8332 112.288 38.4483C112.074 40.1674 111.977 41.8989 111.996 43.631C112.05 45.9923 112.87 48.3843 115.538 48.7677C117.877 49.0973 119.149 47.5333 120.299 45.701C120.32 45.6725 120.347 45.6493 120.378 45.6333C120.41 45.6173 120.444 45.6089 120.479 45.6089C120.515 45.6089 120.549 45.6173 120.581 45.6333C120.612 45.6493 120.639 45.6725 120.66 45.701C122.814 48.576 126.571 47.2343 128.526 44.988C129.157 44.2731 129.724 43.5034 130.22 42.688C130.231 42.6706 130.246 42.6562 130.264 42.6463C130.283 42.6364 130.303 42.6312 130.323 42.6312C130.344 42.6312 130.364 42.6364 130.383 42.6463C130.401 42.6562 130.416 42.6706 130.427 42.688C130.462 42.7574 130.483 42.8329 130.488 42.9103C130.573 44.2446 130.925 45.5482 131.523 46.7437C131.768 47.1808 132.109 47.5565 132.521 47.842C132.932 48.1276 133.404 48.3156 133.899 48.3917C134.394 48.4678 134.9 48.4301 135.379 48.2814C135.857 48.1326 136.295 47.8768 136.66 47.5333C137.747 46.433 138.63 45.148 139.267 43.7383C139.389 43.47 139.481 43.4777 139.55 43.7383C140.041 45.862 141.183 48.3383 143.629 48.461C144.029 48.4957 144.432 48.4957 144.833 48.461C145.844 48.2812 146.811 47.9036 147.677 47.3498C148.542 46.7959 149.29 46.0767 149.877 45.2333C149.894 45.2047 149.918 45.181 149.947 45.1646C149.976 45.1481 150.009 45.1395 150.042 45.1395C150.075 45.1395 150.108 45.1481 150.137 45.1646C150.166 45.181 150.19 45.2047 150.207 45.2333C150.974 46.7667 151.74 47.863 153.481 48.5147C155.029 49.1314 156.751 49.1478 158.311 48.5607C159.789 47.9537 161.026 46.8757 161.83 45.494C162.707 43.9595 163.28 42.27 163.516 40.5183C163.527 40.4498 163.557 40.3859 163.604 40.3342C163.65 40.2826 163.71 40.2453 163.777 40.227C164.776 39.8955 165.69 39.3479 166.453 38.623C167.216 37.8982 167.81 37.014 168.193 36.0333C168.576 35.19 168.024 34.776 167.342 34.5ZM88.8967 45.77C87.785 47.0963 86.4357 47.38 85.1553 46.0613C83.875 44.7427 83.415 42.228 83.438 40.4263C83.438 37.4287 84.3427 30.843 88.59 30.8123C89.2428 30.834 89.8737 31.0532 90.3993 31.441C90.568 31.556 90.5526 31.5867 90.3533 31.5407C90.0205 31.4403 89.6692 31.4167 89.326 31.4717C88.7124 31.6494 88.1582 31.9898 87.7223 32.4568C87.2864 32.9238 86.9848 33.5 86.8497 34.1243C86.5312 35.4379 86.7201 36.8233 87.3787 38.0037C88.3217 39.4297 89.4103 39.7977 90.959 40.227C91.0011 40.2362 91.0381 40.2613 91.0623 40.2969C91.0865 40.3325 91.0962 40.3761 91.0893 40.4187C90.8363 42.3628 90.0806 44.2073 88.8967 45.77ZM91.1967 38.525C90.0697 38.3027 89.2033 37.7583 89.349 36.501C89.3959 36.0388 89.5203 35.5879 89.717 35.167C89.8881 34.9274 90.1075 34.7263 90.361 34.5767C90.4012 34.5554 90.4455 34.5431 90.4909 34.5406C90.5363 34.5381 90.5817 34.5455 90.624 34.5622C90.6663 34.579 90.7044 34.6047 90.7358 34.6377C90.7671 34.6706 90.791 34.71 90.8057 34.753C90.9521 35.1464 91.0525 35.5555 91.1047 35.972C91.2044 36.8191 91.2428 37.6723 91.2197 38.525H91.1967ZM125.306 43.769C125.005 43.9386 124.669 44.0382 124.324 44.0603C124.505 43.4318 124.79 42.8383 125.168 42.3047C125.48 41.9553 125.81 41.6226 126.157 41.308C126.529 40.9256 126.986 40.6366 127.491 40.4647C127.756 40.4123 128.013 40.3273 128.257 40.2117C127.782 41.4613 126.916 42.182 126.095 43.1097C125.877 43.3696 125.618 43.5923 125.329 43.769H125.306ZM155.566 46.7207C155.057 46.4962 154.608 46.1562 154.254 45.7276C153.9 45.299 153.651 44.7938 153.527 44.252C153.047 42.4721 152.897 40.6197 153.082 38.7857C153.197 36.6571 153.803 34.584 154.853 32.729C155.214 32.1394 155.698 31.6347 156.271 31.2493C156.828 30.9178 157.474 30.7644 158.12 30.8096C158.767 30.8548 159.384 31.0965 159.89 31.5023C159.944 31.5023 159.89 31.5637 159.852 31.5483L159.392 31.5023C158.807 31.4314 158.216 31.5878 157.743 31.9393C156.992 32.5057 156.468 33.3211 156.264 34.2393C155.996 35.3392 156.057 36.4937 156.44 37.559C157.099 39.376 158.625 40.043 160.404 40.3343C160.439 40.3417 160.47 40.3628 160.49 40.3929C160.51 40.423 160.518 40.4598 160.511 40.4953C160.112 42.6727 158.709 47.6023 155.589 46.7207H155.566ZM160.618 38.5327C160.339 38.5309 160.065 38.465 159.815 38.3401C159.566 38.2151 159.349 38.0345 159.181 37.8121C159.012 37.5897 158.898 37.3316 158.845 37.0577C158.793 36.7838 158.804 36.5015 158.878 36.2327C158.975 35.6063 159.296 35.0367 159.783 34.6303C159.825 34.5965 159.875 34.5729 159.928 34.5614C159.981 34.55 160.036 34.551 160.089 34.5643C160.142 34.5777 160.191 34.6031 160.232 34.6384C160.273 34.6738 160.306 34.7183 160.327 34.7683C160.618 35.4613 160.751 36.2102 160.718 36.961V38.4253C160.719 38.4492 160.712 38.4727 160.698 38.4922C160.684 38.5116 160.664 38.5259 160.641 38.5327H160.618ZM89.5177 17.296C89.5177 16.4527 89.142 16.146 88.3677 15.9467C87.7447 15.7821 87.103 15.6996 86.4587 15.7013C80.5093 15.7013 74.583 16.7593 68.7563 17.5107C67.625 17.6176 66.4879 17.6509 65.3523 17.6103C64.7493 17.5747 64.1537 17.4587 63.5813 17.2653C63.0063 17.0967 62.5387 17.6563 62.4543 18.1547C62.2933 19.0823 63.0447 20.1863 63.6887 20.8303C64.3226 21.4629 65.1581 21.8535 66.05 21.9343C67.6281 22.0892 69.2212 21.9673 70.7573 21.574C71.7093 21.2603 72.6948 21.0596 73.6937 20.976C73.7088 20.9751 73.7239 20.978 73.7377 20.9844C73.7515 20.9908 73.7635 21.0005 73.7726 21.0126C73.7817 21.0248 73.7876 21.039 73.7899 21.054C73.7922 21.069 73.7907 21.0844 73.7857 21.0987C72.9934 23.9302 72.3009 26.7873 71.708 29.67C71.2695 31.8872 70.9521 34.1266 70.7573 36.3783C70.604 38.0394 70.5145 39.7082 70.489 41.3847C70.489 43.0637 70.489 44.735 70.604 46.414C70.642 46.9084 70.7971 47.3866 71.0563 47.8093C71.2583 48.1805 71.5511 48.4944 71.9073 48.7217C72.3897 48.9314 72.9165 49.0184 73.4407 48.9747C73.7017 48.9937 73.9638 48.9571 74.2097 48.8672C74.4555 48.7774 74.6795 48.6363 74.8667 48.4533C75.1378 48.1435 75.327 47.7706 75.4167 47.3688C75.5064 46.967 75.4939 46.5491 75.3803 46.1533C75.2807 45.816 75.2117 45.4633 75.1427 45.1107C74.9902 44.3938 74.8978 43.6655 74.8667 42.9333C74.8095 40.2437 74.9453 37.5535 75.273 34.8833C75.5106 32.9595 75.8535 31.0502 76.3003 29.164C77.4733 24.633 78.0713 22.264 78.1097 22.1567C78.2707 21.5337 78.3097 20.8855 78.2247 20.2477C78.2201 20.2203 78.2264 20.1922 78.2421 20.1693C78.2578 20.1465 78.2818 20.1306 78.309 20.125C80.7789 19.435 83.3469 19.1629 85.9067 19.32C86.7883 19.412 87.3787 19.4887 87.693 19.5347C88.0207 19.6208 88.3674 19.5993 88.682 19.4733C89.0107 19.2238 89.2647 18.8888 89.4161 18.5049C89.5675 18.1209 89.6106 17.7028 89.5407 17.296H89.5177Z" fill="url(#paint1_linear_102_153)"/>
<path d="M89.3874 54.9777C89.0194 53.6667 87.5857 53.1453 86.3207 53.107C85.1675 53.0727 84.0132 53.1008 82.863 53.1913C82.8094 53.1913 82.7787 53.1913 82.7787 53.2757V61.3947C82.7787 61.4209 82.7838 61.4468 82.7939 61.471C82.8039 61.4951 82.8186 61.5171 82.8371 61.5356C82.8556 61.5541 82.8776 61.5688 82.9017 61.5788C82.9259 61.5889 82.9518 61.594 82.978 61.594H84.565C84.5976 61.594 84.6288 61.5811 84.6518 61.5581C84.6748 61.5351 84.6877 61.5039 84.6877 61.4713V58.5887C84.6895 58.5588 84.7022 58.5306 84.7234 58.5094C84.7446 58.4882 84.7728 58.4755 84.8027 58.4737C85.7714 58.5455 86.7455 58.4731 87.693 58.259C88.35 58.0444 88.896 57.5799 89.2131 56.9658C89.5302 56.3517 89.5928 55.6375 89.3874 54.9777ZM87.6087 55.8593C87.6087 56.373 87.0107 56.7947 86.2747 56.787H84.795C84.7813 56.787 84.7676 56.7842 84.755 56.7788C84.7424 56.7733 84.7311 56.7652 84.7217 56.7552C84.7123 56.7451 84.7052 56.7332 84.7006 56.7202C84.6961 56.7072 84.6943 56.6934 84.6954 56.6797V54.717C84.6953 54.7033 84.6981 54.6896 84.7036 54.677C84.7091 54.6644 84.7171 54.653 84.7272 54.6437C84.7373 54.6343 84.7492 54.6271 84.7622 54.6226C84.7752 54.6181 84.789 54.6163 84.8027 54.6173H86.2824C87.049 54.6173 87.601 55.0467 87.601 55.568L87.6087 55.8593Z" fill="#96662C"/>
<path d="M114.381 59.662C114.454 59.6066 114.514 59.5363 114.558 59.4557C114.602 59.3751 114.627 59.2861 114.634 59.1946C114.641 59.1032 114.628 59.0114 114.596 58.9254C114.564 58.8394 114.514 58.7612 114.45 58.696C114.09 58.4207 113.669 58.2366 113.223 58.1593C111.69 57.8297 109.566 57.6227 109.643 55.499C109.758 52.486 113.675 52.8387 115.592 53.4827C115.621 53.4894 115.648 53.5023 115.671 53.5204C115.695 53.5385 115.714 53.5614 115.728 53.5875C115.741 53.6137 115.749 53.6425 115.751 53.672C115.753 53.7015 115.748 53.7311 115.738 53.7587L115.4 54.9853C115.392 55.0118 115.378 55.0362 115.36 55.057C115.341 55.0778 115.319 55.0945 115.293 55.106C115.268 55.1176 115.241 55.1237 115.213 55.1241C115.185 55.1244 115.158 55.1189 115.132 55.108C114.19 54.615 113.104 54.4685 112.065 54.694C111.975 54.7035 111.886 54.731 111.806 54.7748C111.726 54.8186 111.656 54.8779 111.598 54.9492C111.541 55.0205 111.499 55.1024 111.474 55.1902C111.449 55.278 111.441 55.37 111.452 55.4607C111.459 55.5153 111.483 55.5663 111.521 55.6063C111.72 55.8465 111.987 56.0204 112.288 56.1047C114.043 56.488 117.11 56.8023 116.474 59.4703C116.343 59.9792 116.067 60.4389 115.679 60.793C115.29 61.1471 114.807 61.3802 114.289 61.4637C112.647 61.8097 110.939 61.6602 109.382 61.0343C109.342 61.0233 109.306 61.004 109.274 60.9778C109.242 60.9515 109.216 60.9188 109.198 60.8819C109.18 60.8449 109.17 60.8046 109.169 60.7635C109.167 60.7223 109.175 60.6814 109.19 60.6433L109.466 59.6237C109.47 59.5881 109.483 59.5541 109.504 59.5248C109.524 59.4955 109.552 59.4718 109.584 59.4558C109.616 59.4398 109.651 59.432 109.687 59.4332C109.723 59.4344 109.757 59.4445 109.788 59.4627C110.964 59.925 112.235 60.0935 113.491 59.9533C113.809 59.9396 114.117 59.8388 114.381 59.662Z" fill="#96662C"/>
<path d="M137.151 59.869C137.174 59.8615 137.194 59.8472 137.209 59.8281C137.224 59.809 137.233 59.7859 137.235 59.7617V57.3697C137.235 57.3412 137.246 57.3139 137.266 57.2938C137.287 57.2736 137.314 57.2623 137.342 57.2623H138.937C138.972 57.2623 139.006 57.2758 139.032 57.3C139.058 57.3242 139.073 57.3574 139.075 57.3927V60.881C139.075 60.9331 139.06 60.9841 139.031 61.0276C139.002 61.0712 138.962 61.1055 138.914 61.1263C138.205 61.4273 137.451 61.6086 136.683 61.663C135.234 61.7627 133.938 61.663 132.85 60.7277C132.234 60.2333 131.796 59.5527 131.6 58.788C131.38 57.7719 131.423 56.7166 131.723 55.7213C132.857 52.831 135.901 52.6547 138.623 53.5363C138.672 53.5563 138.713 53.592 138.739 53.6378C138.765 53.6836 138.776 53.737 138.768 53.7893L138.538 54.97C138.534 54.9932 138.525 55.0152 138.511 55.0345C138.498 55.0538 138.48 55.0699 138.46 55.0816C138.439 55.0933 138.416 55.1003 138.393 55.1022C138.369 55.1042 138.346 55.1009 138.324 55.0927C136.691 54.4563 134.253 54.1573 133.601 56.2733C133.449 56.7758 133.408 57.305 133.479 57.825C133.551 58.345 133.733 58.8434 134.015 59.2863C134.713 60.168 136.093 60.1373 137.151 59.869Z" fill="#96662C"/>
<path d="M99.078 61.2107L97.1 58.305C97.0763 58.2682 97.0679 58.2236 97.0765 58.1807C97.0851 58.1378 97.11 58.0999 97.146 58.075C97.6537 57.7077 98.0278 57.1849 98.2118 56.5859C98.3958 55.9869 98.3796 55.3443 98.1657 54.7553C97.944 54.3113 97.6072 53.9348 97.1906 53.6651C96.7739 53.3954 96.2926 53.2424 95.7967 53.222C94.5214 53.1077 93.2385 53.1077 91.9633 53.222C91.8867 53.222 91.8483 53.2603 91.8483 53.337V61.4253C91.8483 61.468 91.8653 61.509 91.8955 61.5392C91.9257 61.5694 91.9666 61.5863 92.0093 61.5863H93.5427C93.5793 61.5863 93.6144 61.5718 93.6402 61.5459C93.6661 61.52 93.6807 61.4849 93.6807 61.4483V58.7957C93.6807 58.7631 93.6936 58.7319 93.7166 58.7089C93.7396 58.6859 93.7708 58.673 93.8033 58.673H95.0607C95.1523 58.6728 95.2424 58.6969 95.3218 58.7426C95.4012 58.7884 95.4672 58.8543 95.513 58.9337C95.9679 59.6901 96.3359 60.3188 96.617 60.8197C96.6921 61.0182 96.818 61.1935 96.9821 61.3281C97.1463 61.4626 97.3429 61.5517 97.5523 61.5863C98.0252 61.621 98.5004 61.6082 98.9707 61.548C99.0067 61.5418 99.0403 61.5259 99.0678 61.5019C99.0954 61.4779 99.1158 61.4468 99.1269 61.412C99.138 61.3772 99.1393 61.34 99.1307 61.3045C99.122 61.269 99.1038 61.2365 99.078 61.2107ZM96.4637 55.9207C96.4288 56.2607 96.2609 56.5731 95.9967 56.79C95.7325 57.0068 95.3933 57.1105 95.053 57.0783H93.7957C93.7713 57.0783 93.7479 57.0686 93.7306 57.0514C93.7134 57.0341 93.7037 57.0107 93.7037 56.9863V54.6863C93.7037 54.6619 93.7134 54.6385 93.7306 54.6213C93.7479 54.604 93.7713 54.5943 93.7957 54.5943H95.053C95.393 54.5598 95.733 54.6601 95.9997 54.8738C96.2664 55.0874 96.4385 55.3973 96.479 55.7367L96.4637 55.9207Z" fill="#96662C"/>
<path d="M103.325 57.9447C103.296 57.9466 103.269 57.9596 103.249 57.9809C103.229 58.0023 103.218 58.0305 103.218 58.0597V59.869C103.217 59.8827 103.219 59.8965 103.223 59.9095C103.228 59.9225 103.235 59.9344 103.244 59.9445C103.254 59.9546 103.265 59.9626 103.278 59.9681C103.29 59.9736 103.304 59.9764 103.318 59.9763H107.151C107.18 59.9753 107.208 59.9801 107.234 59.9905C107.261 60.0009 107.285 60.0167 107.305 60.0368C107.325 60.057 107.341 60.0811 107.352 60.1076C107.362 60.1341 107.367 60.1625 107.366 60.191V61.4177C107.366 61.548 107.297 61.6093 107.166 61.6093H101.485C101.466 61.6104 101.447 61.6074 101.428 61.6005C101.41 61.5936 101.394 61.5829 101.38 61.5691C101.366 61.5554 101.355 61.5389 101.349 61.5207C101.342 61.5025 101.339 61.4831 101.34 61.4637V53.3063C101.342 53.2731 101.356 53.2419 101.38 53.2191C101.405 53.1963 101.437 53.1836 101.47 53.1837H106.967C107.097 53.1837 107.166 53.245 107.166 53.3753L107.22 54.5023C107.225 54.53 107.224 54.5585 107.216 54.5854C107.208 54.6124 107.193 54.637 107.174 54.6572C107.154 54.6775 107.13 54.6928 107.104 54.7019C107.077 54.7109 107.049 54.7135 107.021 54.7093H103.402C103.353 54.7093 103.305 54.7284 103.269 54.7627C103.233 54.797 103.212 54.8438 103.21 54.8933V56.2427C103.206 56.2687 103.209 56.2953 103.217 56.3204C103.225 56.3454 103.239 56.3681 103.258 56.3868C103.277 56.4054 103.299 56.4194 103.324 56.4277C103.349 56.4359 103.376 56.4382 103.402 56.4343H105.978C106.005 56.4343 106.031 56.4397 106.056 56.4502C106.081 56.4607 106.103 56.4761 106.122 56.4954C106.14 56.5147 106.155 56.5376 106.164 56.5627C106.174 56.5878 106.178 56.6145 106.177 56.6413V57.845C106.181 57.8731 106.178 57.9017 106.169 57.9285C106.16 57.9553 106.145 57.9797 106.125 57.9998C106.105 58.0198 106.081 58.0349 106.054 58.044C106.027 58.0531 105.998 58.0558 105.97 58.052L103.325 57.9447Z" fill="#96662C"/>
<path d="M121.143 53.1683C122.461 53.1683 123.665 53.1683 124.731 53.1683C124.759 53.1645 124.787 53.1673 124.814 53.1763C124.841 53.1854 124.865 53.2005 124.885 53.2206C124.905 53.2406 124.921 53.265 124.93 53.2918C124.939 53.3187 124.941 53.3473 124.938 53.3753V54.5483C124.94 54.5671 124.938 54.5861 124.932 54.604C124.926 54.6219 124.916 54.6382 124.903 54.6515C124.89 54.6649 124.873 54.675 124.855 54.681C124.837 54.687 124.818 54.6889 124.8 54.6863H122.247C122.216 54.6863 122.187 54.6984 122.165 54.72C122.144 54.7416 122.132 54.7708 122.132 54.8013V61.4713C122.134 61.4901 122.132 61.5091 122.126 61.527C122.12 61.5449 122.11 61.5612 122.097 61.5745C122.084 61.5879 122.067 61.598 122.049 61.604C122.031 61.61 122.012 61.6119 121.994 61.6093H121.173H120.345C120.327 61.6119 120.308 61.61 120.29 61.604C120.272 61.598 120.256 61.5879 120.242 61.5745C120.229 61.5612 120.219 61.5449 120.213 61.527C120.207 61.5091 120.205 61.4901 120.207 61.4713L120.161 54.8013C120.161 54.7708 120.149 54.7416 120.128 54.72C120.106 54.6984 120.077 54.6863 120.046 54.6863H117.493C117.401 54.6863 117.355 54.6403 117.355 54.556V53.3753C117.355 53.2373 117.417 53.1683 117.562 53.176L121.143 53.1683Z" fill="#96662C"/>
<path d="M128.856 53.1435L127.261 53.1463C127.189 53.1465 127.131 53.2049 127.131 53.2769L127.145 61.4802C127.146 61.5522 127.204 61.6104 127.276 61.6103L128.871 61.6075C128.943 61.6074 129.001 61.549 129.001 61.477L128.986 53.2737C128.986 53.2017 128.928 53.1434 128.856 53.1435Z" fill="#96662C"/>
<path d="M143.729 59.984H147.6C147.64 59.9839 147.678 59.999 147.706 60.0262C147.735 60.0533 147.752 60.0903 147.754 60.1297V61.456C147.754 61.4758 147.75 61.4954 147.742 61.5136C147.734 61.5318 147.723 61.5482 147.708 61.5618C147.694 61.5754 147.677 61.586 147.658 61.5929C147.64 61.5997 147.62 61.6027 147.6 61.6017H141.866C141.846 61.6027 141.826 61.5997 141.808 61.5929C141.789 61.586 141.772 61.5754 141.758 61.5618C141.743 61.5482 141.732 61.5318 141.724 61.5136C141.716 61.4954 141.712 61.4758 141.712 61.456V53.3063C141.712 53.2657 141.728 53.2267 141.757 53.1979C141.786 53.1692 141.825 53.153 141.866 53.153H147.432C147.471 53.155 147.508 53.172 147.535 53.2005C147.562 53.2291 147.577 53.267 147.577 53.3063V54.533C147.577 54.5716 147.562 54.6087 147.535 54.636C147.507 54.6633 147.47 54.6787 147.432 54.6787H143.744C143.705 54.6806 143.668 54.6977 143.641 54.7262C143.613 54.7547 143.598 54.7926 143.598 54.832V56.2427C143.6 56.2807 143.616 56.3167 143.643 56.3436C143.67 56.3705 143.706 56.3865 143.744 56.3883H146.42C146.459 56.3903 146.496 56.4073 146.523 56.4359C146.55 56.4644 146.565 56.5023 146.565 56.5417V57.822C146.565 57.8614 146.55 57.8993 146.523 57.9278C146.496 57.9563 146.459 57.9734 146.42 57.9753H143.729C143.69 57.9753 143.653 57.9907 143.626 58.018C143.598 58.0453 143.583 58.0824 143.583 58.121V59.8C143.579 59.8219 143.579 59.8445 143.584 59.8663C143.589 59.888 143.599 59.9084 143.613 59.9259C143.627 59.9434 143.644 59.9577 143.664 59.9678C143.684 59.9778 143.706 59.9833 143.729 59.984Z" fill="#96662C"/>
<path d="M92.891 67.919C93.7564 67.5671 94.5651 67.0891 95.2907 66.5007L95.5207 66.3473C95.8376 66.0962 96.1955 65.9016 96.5787 65.7723C97.3453 65.5883 98.4493 65.6037 98.8787 66.447C99.193 67.0373 99.0013 67.5203 98.3037 67.9037C98.0687 68.0353 97.793 68.0744 97.5307 68.0135C97.2683 67.9525 97.0382 67.7958 96.8853 67.574C96.8473 67.478 96.8473 67.371 96.8853 67.275C96.91 67.2183 96.946 67.1673 96.9911 67.125C97.0362 67.0828 97.0895 67.0503 97.1477 67.0294C97.2059 67.0086 97.2677 66.9999 97.3294 67.0039C97.3911 67.0079 97.4513 67.0245 97.5063 67.0527C97.5523 67.0527 97.606 67.114 97.5907 67.16C97.5753 67.206 97.5907 67.206 97.5293 67.2213C97.46 67.2488 97.3881 67.2694 97.3147 67.2827C97.2444 67.2996 97.1821 67.3402 97.1383 67.3977C97.114 67.4382 97.1011 67.4846 97.1011 67.5318C97.1011 67.5791 97.114 67.6255 97.1383 67.666C97.1697 67.7289 97.2139 67.7846 97.268 67.8294C97.3222 67.8743 97.385 67.9074 97.4527 67.9267C97.813 68.0263 98.066 67.6813 98.1503 67.3823C98.1976 67.2023 98.1777 67.0113 98.0945 66.8448C98.0113 66.6784 97.8703 66.5479 97.698 66.4777H97.629C97.3405 66.3665 97.0252 66.3451 96.7243 66.4163C96.3932 66.5161 96.0724 66.647 95.766 66.8073C94.969 67.2563 94.1323 67.631 93.2667 67.9267C93.1318 67.9685 92.9875 67.9685 92.8527 67.9267L92.891 67.919Z" fill="#96662C"/>
<path d="M139.78 67.919C138.913 67.5655 138.102 67.0877 137.373 66.5007L137.151 66.3473C136.834 66.0962 136.476 65.9016 136.093 65.7723C135.326 65.5883 134.222 65.6037 133.793 66.447C133.478 67.0373 133.67 67.5203 134.368 67.9037C134.603 68.0353 134.878 68.0744 135.141 68.0135C135.403 67.9525 135.633 67.7958 135.786 67.574C135.837 67.4829 135.85 67.3759 135.824 67.275C135.8 67.2183 135.764 67.1673 135.719 67.125C135.673 67.0828 135.62 67.0503 135.562 67.0294C135.504 67.0086 135.442 66.9999 135.38 67.0039C135.319 67.0079 135.258 67.0245 135.203 67.0527C135.157 67.0527 135.104 67.114 135.119 67.16C135.134 67.206 135.157 67.206 135.18 67.2213C135.25 67.2488 135.322 67.2694 135.395 67.2827C135.465 67.2996 135.528 67.3402 135.571 67.3977C135.596 67.4382 135.609 67.4846 135.609 67.5318C135.609 67.5791 135.596 67.6255 135.571 67.666C135.54 67.73 135.494 67.7864 135.439 67.8314C135.383 67.8764 135.319 67.9088 135.249 67.9267C134.897 68.0263 134.644 67.6813 134.559 67.3823C134.512 67.2023 134.532 67.0113 134.615 66.8448C134.698 66.6784 134.839 66.5479 135.012 66.4777H135.081C135.369 66.3665 135.685 66.3451 135.985 66.4163C136.316 66.5161 136.637 66.647 136.944 66.8073C137.727 67.2635 138.551 67.6459 139.405 67.9497C139.54 67.9915 139.684 67.9915 139.819 67.9497L139.78 67.919Z" fill="#96662C"/>
<path d="M135.893 68.1797C135.637 68.4156 135.312 68.5633 134.966 68.6013C133.641 68.7433 132.303 68.7097 130.987 68.5017C129.607 68.287 127.59 67.9497 124.953 67.4973C121.963 66.9913 118.896 67.0297 116.52 69.1457C116.512 69.1553 116.502 69.1631 116.491 69.1684C116.479 69.1737 116.467 69.1765 116.455 69.1765C116.442 69.1765 116.43 69.1737 116.418 69.1684C116.407 69.1631 116.397 69.1553 116.389 69.1457C115.32 68.206 114.002 67.5939 112.594 67.3823C110.409 67.1264 108.195 67.2561 106.055 67.7657C104.143 68.149 102.252 68.4352 100.381 68.6243C99.4154 68.724 97.3147 68.8007 96.6017 68.103V68.1413C97.0004 68.5506 97.4774 68.8755 98.0042 69.0968C98.531 69.3181 99.097 69.4311 99.6684 69.4293C99.7144 69.4293 99.7144 69.4293 99.6684 69.4293C101.285 69.4993 102.903 69.3575 104.483 69.0077C106.876 68.5212 109.309 68.2645 111.751 68.241C113.102 68.2749 114.422 68.655 115.584 69.345C115.631 69.3631 115.673 69.3919 115.707 69.4292C115.741 69.4664 115.765 69.511 115.779 69.5594C115.792 69.6079 115.794 69.6588 115.784 69.7081C115.774 69.7574 115.753 69.8037 115.722 69.8433L115.431 70.3493C115.415 70.3939 115.389 70.4337 115.353 70.465C115.318 70.4963 115.275 70.518 115.229 70.528C115.183 70.538 115.135 70.536 115.09 70.5221C115.045 70.5083 115.004 70.4831 114.971 70.449C114.03 69.7847 112.954 69.3369 111.82 69.138C109.069 68.729 106.264 68.875 103.571 69.5673C102.858 69.736 101.991 69.782 101.271 69.9047C100.872 69.966 100.872 70.0273 101.271 70.0963C102.089 70.2323 102.92 70.2683 103.747 70.2037L107.335 69.9737C108.997 69.9096 110.657 70.122 112.249 70.6023H112.349C112.771 70.7522 113.181 70.9342 113.576 71.1467C113.788 71.2571 113.991 71.3853 114.181 71.53C114.855 72.1328 115.38 72.8833 115.715 73.7227C115.914 74.1765 116.058 74.6527 116.144 75.141C116.19 75.3863 116.228 75.6317 116.259 75.9077L116.305 76.2603C116.305 76.3293 116.366 76.5287 116.305 76.59C116.419 76.3307 116.484 76.0526 116.497 75.7697C116.511 75.5944 116.537 75.4203 116.573 75.2483C116.698 74.5362 116.933 73.848 117.271 73.209C117.581 72.5695 118.035 72.0106 118.597 71.576C119.011 71.2939 119.459 71.0671 119.931 70.9013C121.724 70.2643 123.619 69.9654 125.52 70.0197C127.054 70.0197 129.392 70.38 131.401 70.0197C131.715 69.9737 131.715 69.9277 131.401 69.8817C130.442 69.759 129.361 69.575 128.173 69.3373C126.003 68.8995 123.775 68.8218 121.58 69.1073C120.224 69.2352 118.926 69.7163 117.815 70.5027C117.783 70.5369 117.742 70.5621 117.697 70.5756C117.652 70.5891 117.604 70.5905 117.558 70.5796C117.512 70.5688 117.47 70.546 117.436 70.5136C117.402 70.4813 117.376 70.4405 117.363 70.3953L117.087 69.8587C117.058 69.8185 117.038 69.7722 117.029 69.7233C117.02 69.6744 117.022 69.624 117.035 69.5761C117.049 69.5282 117.073 69.4839 117.105 69.4465C117.138 69.4091 117.179 69.3797 117.225 69.3603C119.165 68.2899 121.411 67.9088 123.596 68.2793C125.38 68.4787 127.092 68.7342 128.733 69.046C130.118 69.3015 131.526 69.412 132.934 69.3757C134.032 69.387 135.094 68.9784 135.901 68.2333C135.905 68.2245 135.906 68.2149 135.904 68.2055C135.903 68.196 135.899 68.1871 135.893 68.1797ZM117.631 71.5223C117.019 72.3221 116.594 73.2498 116.389 74.2363C116.234 73.2531 115.86 72.3176 115.293 71.4993L117.631 71.5223Z" fill="#96662C"/>
<path d="M121.296 72.0053C121.472 71.9237 121.613 71.7831 121.696 71.608C121.778 71.4329 121.797 71.2344 121.748 71.047C121.748 70.9703 121.779 70.9397 121.84 70.955C121.952 70.9683 122.057 71.0149 122.142 71.0887C122.227 71.1626 122.287 71.2602 122.316 71.369C122.607 72.3427 121.756 72.8333 120.928 72.8563C120.158 72.8892 119.398 72.6683 118.766 72.2277C118.444 71.9977 118.467 71.967 118.82 72.128C119.211 72.3128 119.641 72.3982 120.073 72.3768C120.505 72.3554 120.925 72.2278 121.296 72.0053Z" fill="#96662C"/>
<path d="M111.36 71.99C111.184 71.9083 111.043 71.7678 110.96 71.5927C110.878 71.4176 110.859 71.2191 110.908 71.0317C110.908 70.955 110.877 70.9243 110.816 70.9397C110.703 70.9508 110.597 70.9967 110.512 71.0709C110.427 71.145 110.367 71.2439 110.34 71.3537C110.049 72.335 110.892 72.818 111.728 72.841C112.498 72.8773 113.259 72.6562 113.89 72.2123C114.204 71.99 114.189 71.9517 113.836 72.1127C113.446 72.2994 113.015 72.386 112.583 72.3646C112.15 72.3432 111.73 72.2144 111.36 71.99Z" fill="#96662C"/>
<path d="M127.238 33.8023C127.235 33.9571 127.217 34.1111 127.184 34.2623L127.238 33.8023Z" fill="#96662C"/>
</g>
<defs>
<radialGradient id="paint0_radial_102_153" cx="0" cy="0" r="1" gradientUnits="userSpaceOnUse" gradientTransform="translate(111.007 21.4053) scale(16.6137)">
<stop stop-color="#F15923"/>
<stop offset="1" stop-color="#B51714"/>
</radialGradient>
<linearGradient id="paint1_linear_102_153" x1="115.439" y1="31.7707" x2="115.646" y2="50.1247" gradientUnits="userSpaceOnUse">
<stop stop-color="#C50018"/>
<stop offset="0.07" stop-color="#BE0217"/>
<stop offset="0.44" stop-color="#A00B10"/>
<stop offset="0.65" stop-color="#950E0E"/>
</linearGradient>
<clipPath id="clip0_102_153">
<rect width="230" height="76.6667" fill="white" transform="translate(0.5)"/>
</clipPath>
</defs>
</svg>
