<svg width="27" height="28" viewBox="0 0 27 28" fill="none" xmlns="http://www.w3.org/2000/svg">
<path d="M2.26791 16.6697C2.34209 20.0821 2.37919 21.7883 3.65187 23.0519C4.92455 24.3155 6.69581 24.3593 10.2383 24.4469C12.4192 24.5008 14.5808 24.5008 16.7617 24.4469C20.3042 24.3593 22.0754 24.3155 23.3481 23.0519C24.6208 21.7883 24.6579 20.0821 24.7321 16.6697C24.7684 14.9978 24.7494 13.3424 24.6751 11.6534C24.6289 10.6044 24.6059 10.0799 24.3398 9.61463C24.0738 9.14937 23.6152 8.84907 22.698 8.24849L18.4671 5.47802C16.0585 3.90088 14.8543 3.1123 13.5 3.1123C12.1457 3.1123 10.9415 3.90087 8.53293 5.47802L4.30196 8.24849C3.38477 8.84907 2.92619 9.14937 2.66016 9.61463C2.39413 10.0799 2.37105 10.6044 2.32488 11.6534C2.25055 13.3424 2.23156 14.9978 2.26791 16.6697Z" stroke="#C11918" stroke-width="2" stroke-linejoin="round"/>
<path d="M2.25 10.9873L7.04854 14.4631C7.5775 14.8463 8.0616 15.1969 8.5095 15.5151C9.72011 16.375 10.5937 16.6123 12.0782 16.6123H14.9218C16.4063 16.6123 17.2799 16.375 18.4905 15.5151C18.9384 15.1969 19.4225 14.8463 19.9514 14.4631L24.75 10.9873" stroke="#C11918" stroke-width="2" stroke-linejoin="round"/>
</svg>
