<svg width="44" height="98" viewBox="0 0 44 98" fill="none" xmlns="http://www.w3.org/2000/svg">
<path d="M0 90.7396L9.56614 97.2066L10.3837 85.6886L0 90.7396ZM0 1C0 2 -9.14701e-05 2 -0.000177784 2C-0.000199694 2 -0.000280919 2 -0.000324767 2C-0.000412493 2 -0.000479698 2 -0.000526413 2C-0.000619841 2 -0.000631306 2 -0.000561033 2C-0.000420487 2 4.69934e-05 2 0.000839583 2C0.00242478 2.00001 0.00531031 2.00002 0.0094816 2.00005C0.0178243 2.0001 0.0313092 2.00021 0.0498196 2.00044C0.0868415 2.00091 0.143959 2.00187 0.220237 2.00385C0.372806 2.00779 0.601962 2.01579 0.900244 2.03198C1.49691 2.06436 2.36952 2.12948 3.45848 2.26042L3.69724 0.274722C2.56087 0.138086 1.64455 0.0694274 1.00862 0.0349157C0.690607 0.017657 0.442546 0.00892916 0.271972 0.00451541C0.18668 0.0023084 0.120744 0.0011796 0.0751068 0.000602533C0.0522874 0.000313991 0.0345407 0.000163361 0.0219842 8.48647e-05C0.015706 4.56163e-05 0.010725 2.44003e-05 0.00705616 1.29964e-05C0.00522172 7.29435e-06 0.00371526 4.04527e-06 0.00253863 2.22169e-06C0.00195031 1.3099e-06 0.00144445 7.54477e-07 0.00102127 4.27003e-07C0.000809679 2.63266e-07 0.000618759 1.56515e-07 0.000448538 9.06985e-08C0.000363442 5.98744e-08 0.000251274 2.94086e-08 0.000208734 2.06681e-08C0.000101789 4.66864e-09 0 0 0 1ZM10.402 3.60908C12.485 4.16788 14.753 4.91983 17.0857 5.93129L17.8813 4.09637C15.4473 3.04093 13.0851 2.25815 10.9202 1.67738L10.402 3.60908ZM23.2993 9.24148C25.1951 10.4647 27.0636 11.8936 28.8427 13.563L30.2112 12.1045C28.3376 10.3465 26.3727 8.84432 24.3837 7.56093L23.2993 9.24148ZM33.4862 18.8186C34.8036 20.625 36.0189 22.6276 37.0943 24.8484L38.8944 23.9768C37.7666 21.6477 36.4895 19.5425 35.1022 17.6401L33.4862 18.8186ZM39.6367 31.4136C40.2791 33.5503 40.8073 35.8456 41.2002 38.3115L43.1752 37.9969C42.7689 35.4461 42.2211 33.0634 41.552 30.8378L39.6367 31.4136ZM41.9163 45.3857C41.9716 46.5467 42 47.7392 42 48.9643H44C44 47.7083 43.9709 46.484 43.9141 45.2906L41.9163 45.3857ZM42 48.9643C42 50.1454 41.9736 51.2924 41.9222 52.4063L43.9201 52.4985C43.9729 51.353 44 50.1752 44 48.9643H42ZM41.2487 59.1969C40.8734 61.5819 40.3665 63.7807 39.7484 65.8076L41.6615 66.3909C42.3082 64.2697 42.8354 61.9796 43.2244 59.5078L41.2487 59.1969ZM37.2464 72.0636C36.1678 74.181 34.9436 76.0489 33.6143 77.6968L35.171 78.9525C36.5879 77.1959 37.8875 75.2114 39.0285 72.9714L37.2464 72.0636ZM28.8639 82.4052C27.0443 83.8455 25.1305 85.0207 23.1886 85.9777L24.0727 87.7717C26.1297 86.7579 28.1652 85.509 30.1051 83.9734L28.8639 82.4052ZM16.8888 88.3719C14.5654 89.0242 12.3106 89.4304 10.2451 89.6739L10.4793 91.6601C12.6322 91.4063 14.991 90.982 17.4294 90.2974L16.8888 88.3719ZM0 90.7396L9.56614 97.2066L10.3837 85.6886L0 90.7396ZM0 1C0 2 -9.14701e-05 2 -0.000177784 2C-0.000199694 2 -0.000280919 2 -0.000324767 2C-0.000412493 2 -0.000479698 2 -0.000526413 2C-0.000619841 2 -0.000631306 2 -0.000561033 2C-0.000420487 2 4.69934e-05 2 0.000839583 2C0.00242478 2.00001 0.00531031 2.00002 0.0094816 2.00005C0.0178243 2.0001 0.0313092 2.00021 0.0498196 2.00044C0.0868415 2.00091 0.143959 2.00187 0.220237 2.00385C0.372806 2.00779 0.601962 2.01579 0.900244 2.03198C1.49691 2.06436 2.36952 2.12948 3.45848 2.26042L3.69724 0.274722C2.56087 0.138086 1.64455 0.0694274 1.00862 0.0349157C0.690607 0.017657 0.442546 0.00892916 0.271972 0.00451541C0.18668 0.0023084 0.120744 0.0011796 0.0751068 0.000602533C0.0522874 0.000313991 0.0345407 0.000163361 0.0219842 8.48647e-05C0.015706 4.56163e-05 0.010725 2.44003e-05 0.00705616 1.29964e-05C0.00522172 7.29435e-06 0.00371526 4.04527e-06 0.00253863 2.22169e-06C0.00195031 1.3099e-06 0.00144445 7.54477e-07 0.00102127 4.27003e-07C0.000809679 2.63266e-07 0.000618759 1.56515e-07 0.000448538 9.06985e-08C0.000363442 5.98744e-08 0.000251274 2.94086e-08 0.000208734 2.06681e-08C0.000101789 4.66864e-09 0 0 0 1ZM10.402 3.60908C12.485 4.16788 14.753 4.91983 17.0857 5.93129L17.8813 4.09637C15.4473 3.04093 13.0851 2.25815 10.9202 1.67738L10.402 3.60908ZM23.2993 9.24148C25.1951 10.4647 27.0636 11.8936 28.8427 13.563L30.2112 12.1045C28.3376 10.3465 26.3727 8.84432 24.3837 7.56093L23.2993 9.24148ZM33.4862 18.8186C34.8036 20.625 36.0189 22.6276 37.0943 24.8484L38.8944 23.9768C37.7666 21.6477 36.4895 19.5425 35.1022 17.6401L33.4862 18.8186ZM39.6367 31.4136C40.2791 33.5503 40.8073 35.8456 41.2002 38.3115L43.1752 37.9969C42.7689 35.4461 42.2211 33.0634 41.552 30.8378L39.6367 31.4136ZM41.9163 45.3857C41.9716 46.5467 42 47.7392 42 48.9643H44C44 47.7083 43.9709 46.484 43.9141 45.2906L41.9163 45.3857ZM42 48.9643C42 50.1454 41.9736 51.2924 41.9222 52.4063L43.9201 52.4985C43.9729 51.353 44 50.1752 44 48.9643H42ZM41.2487 59.1969C40.8734 61.5819 40.3665 63.7807 39.7484 65.8076L41.6615 66.3909C42.3082 64.2697 42.8354 61.9796 43.2244 59.5078L41.2487 59.1969ZM37.2464 72.0636C36.1678 74.181 34.9436 76.0489 33.6143 77.6968L35.171 78.9525C36.5879 77.1959 37.8875 75.2114 39.0285 72.9714L37.2464 72.0636ZM28.8639 82.4052C27.0443 83.8455 25.1305 85.0207 23.1886 85.9777L24.0727 87.7717C26.1297 86.7579 28.1652 85.509 30.1051 83.9734L28.8639 82.4052ZM16.8888 88.3719C14.5654 89.0242 12.3106 89.4304 10.2451 89.6739L10.4793 91.6601C12.6322 91.4063 14.991 90.982 17.4294 90.2974L16.8888 88.3719Z" fill="#C11918"/>
</svg>
